<?xml version="1.0" standalone="no"?>
<!DOCTYPE svg PUBLIC "-//W3C//DTD SVG 20010904//EN"
 "http://www.w3.org/TR/2001/REC-SVG-20010904/DTD/svg10.dtd">
<svg version="1.0" xmlns="http://www.w3.org/2000/svg"
 width="5500.000000pt" height="3143.000000pt" viewBox="0 0 5500.000000 3143.000000"
 preserveAspectRatio="xMidYMid meet">

<g transform="translate(0.000000,3143.000000) scale(0.100000,-0.100000)"
fill="#000000" stroke="none">
<path d="M39296 29314 c-547 -70 -1024 -311 -1224 -617 -143 -219 -170 -421
-158 -1177 4 -234 8 -438 9 -455 2 -27 -1 -30 -30 -33 -31 -3 -33 -6 -33 -42
0 -36 2 -39 33 -42 28 -3 32 -7 35 -37 l4 -34 -61 54 c-98 87 -212 167 -269
189 -69 26 -156 26 -199 0 -123 -74 -114 -392 22 -790 128 -374 310 -663 436
-693 43 -11 123 20 183 69 53 43 56 44 61 22 2 -13 21 -97 40 -188 61 -285
127 -499 186 -611 30 -56 130 -168 204 -230 70 -58 164 -128 220 -164 33 -22
62 -42 65 -46 12 -16 228 -130 303 -160 45 -18 86 -36 91 -40 5 -5 -5 -44 -23
-94 -18 -47 -31 -90 -29 -95 3 -11 474 -310 488 -310 8 0 526 324 543 340 5 4
0 28 -11 53 -11 25 -22 58 -25 73 -6 28 -2 31 75 69 266 131 686 465 827 658
58 79 114 252 171 522 12 55 23 106 26 114 3 9 18 1 48 -27 100 -92 199 -112
277 -56 157 111 381 558 479 955 81 332 62 572 -52 630 -93 47 -244 4 -386
-110 -34 -28 -64 -51 -67 -51 -3 0 -5 9 -5 20 0 12 -5 17 -14 14 -8 -3 -16 -2
-19 3 -3 4 1 78 8 163 49 561 37 1093 -31 1320 -74 248 -305 464 -670 624
-244 107 -555 184 -873 216 -144 14 -524 11 -655 -6z m-211 -1948 c418 -151
487 -727 117 -969 -95 -62 -171 -88 -272 -94 -163 -10 -287 38 -412 159 -60
58 -85 90 -113 150 -42 89 -54 150 -34 171 15 16 36 39 118 137 31 36 72 81
92 100 20 19 61 64 90 100 30 35 71 83 91 105 20 22 60 71 89 108 l53 69 60
-7 c34 -4 88 -17 121 -29z m1608 19 c189 -40 350 -191 407 -382 13 -41 12 -43
-22 -85 -19 -24 -51 -68 -71 -98 -20 -31 -47 -66 -59 -78 -23 -21 -26 -21
-103 -8 -83 15 -98 13 -129 -13 -15 -12 -17 -12 -11 -2 5 9 -8 5 -31 -9 -21
-14 -40 -24 -41 -23 -2 2 -11 0 -20 -3 -10 -3 -24 -8 -31 -10 -7 -2 -10 -9 -6
-15 5 -8 3 -9 -6 -4 -19 12 -83 7 -150 -10 -30 -8 -91 -17 -135 -20 -44 -4
-87 -9 -95 -12 -8 -3 -35 -5 -60 -4 -73 4 -36 -16 93 -49 136 -35 259 -51 314
-40 34 6 177 67 290 123 24 11 46 17 50 13 4 -4 3 -10 -2 -14 -6 -4 -28 -29
-50 -57 -22 -27 -53 -65 -70 -83 -41 -46 -49 -61 -33 -66 7 -3 46 -12 86 -22
39 -9 72 -18 72 -20 0 -11 -130 -67 -187 -80 -90 -21 -217 -14 -298 16 -66 25
-177 95 -218 138 -14 15 -46 58 -71 96 -47 71 -47 75 -16 141 5 11 21 46 35
79 51 118 160 252 235 290 110 55 225 -24 323 -223 47 -95 52 -101 55 -72 2
17 -6 69 -17 115 -37 148 -79 225 -149 271 -47 30 -121 48 -139 33 -34 -28 7
34 76 115 50 58 82 87 95 87 12 0 51 -7 89 -15z m-404 -87 c-7 -13 -29 -44
-50 -71 -75 -94 -158 -310 -158 -409 -1 -24 -7 -68 -14 -98 l-14 -55 -13 45
c-16 57 -17 211 -1 270 15 53 41 112 54 121 5 3 9 10 10 15 1 5 5 8 9 7 4 -2
5 3 2 10 -6 15 86 119 140 158 47 35 50 35 35 7z m491 -562 c0 -3 -4 -8 -10
-11 -5 -3 -10 -1 -10 4 0 6 5 11 10 11 6 0 10 -2 10 -4z m-110 -56 c-8 -5 -19
-10 -25 -10 -5 0 -3 5 5 10 8 5 20 10 25 10 6 0 3 -5 -5 -10z m315 -139 c3 -5
2 -12 -3 -15 -5 -3 -9 1 -9 9 0 17 3 19 12 6z m-79 -97 c1 -9 0 -13 -4 -10 -3
4 -7 14 -8 22 -1 9 0 13 4 10 3 -4 7 -14 8 -22z m-1026 -103 c88 -26 88 -61 2
-82 -80 -20 -429 -18 -492 2 -32 11 -46 21 -48 35 -4 25 25 39 108 53 69 12
383 6 430 -8z m195 -11 c28 -31 10 -74 -32 -78 -42 -4 -73 13 -73 40 0 52 69
77 105 38z m-1715 -460 c0 -13 -1 -13 -10 0 -5 8 -10 22 -10 30 0 13 1 13 10
0 5 -8 10 -22 10 -30z m6 -35 c-8 -21 11 -19 23 3 14 23 14 6 0 -20 -8 -15 -8
-27 2 -44 12 -23 16 -24 131 -24 l118 0 0 -25 0 -25 160 0 c136 0 160 -2 160
-15 0 -12 16 -15 86 -15 71 0 85 -3 81 -14 -4 -10 -1 -13 8 -9 8 3 12 9 9 14
-3 5 0 9 5 9 19 0 12 -29 -9 -40 -11 -6 -20 -15 -20 -20 0 -6 13 2 30 16 16
15 27 31 24 36 -3 5 2 8 12 6 13 -2 19 3 19 17 0 20 27 37 75 49 14 3 4 -4
-22 -17 -26 -12 -48 -25 -48 -30 0 -4 18 2 41 13 23 12 43 19 46 17 2 -3 -10
-12 -29 -21 -18 -9 -60 -37 -93 -64 -53 -42 -65 -47 -109 -47 l-50 0 -2 -40
c-1 -35 0 -37 9 -17 8 17 16 22 31 18 62 -15 323 -47 471 -57 241 -16 476 0
744 51 95 19 142 21 93 6 -21 -7 -38 -36 -22 -36 6 0 10 4 10 9 0 5 7 11 14
14 10 4 13 1 10 -7 -6 -16 56 -17 69 -1 6 6 10 5 14 -4 5 -11 7 -11 14 0 6 10
9 11 9 2 0 -8 15 -13 40 -13 36 0 40 -2 40 -25 l0 -25 120 0 c73 0 120 4 120
10 0 6 7 10 15 10 8 0 15 7 15 15 0 8 5 15 11 15 6 0 9 -7 7 -16 -2 -14 -13
-23 -47 -41 -1 -1 6 -12 18 -24 21 -22 21 -22 21 -2 0 23 27 50 38 38 4 -4 1
-10 -5 -12 -7 -3 -13 -11 -13 -18 0 -22 -32 -85 -41 -80 -4 3 -5 -3 -3 -13 3
-9 -4 -27 -16 -39 -11 -12 -19 -26 -18 -30 2 -7 -54 -119 -84 -168 -7 -11 -26
-42 -42 -70 -182 -307 -483 -671 -649 -784 -100 -68 -318 -75 -561 -20 -107
25 -110 27 -262 200 -177 202 -250 294 -422 534 -24 34 -59 89 -179 283 -7 12
-11 22 -8 22 4 0 -2 12 -13 28 -17 25 -66 120 -67 132 -1 3 -11 24 -23 47 -12
24 -19 49 -15 59 4 11 3 15 -5 10 -7 -4 -15 9 -23 36 -6 24 -15 48 -19 53 -9
12 -30 87 -36 127 -1 15 -7 35 -12 45 -9 17 -6 43 5 43 3 0 3 -7 -1 -15z
m1051 -21 c-3 -3 -12 -4 -19 -1 -8 3 -5 6 6 6 11 1 17 -2 13 -5z m40 -40 c-3
-3 -12 -4 -19 -1 -8 3 -5 6 6 6 11 1 17 -2 13 -5z m-57 -14 c0 -13 -11 -13
-30 0 -12 8 -11 10 8 10 12 0 22 -4 22 -10z m-160 -24 c0 -2 -9 -6 -20 -9 -11
-3 -20 -1 -20 4 0 5 9 9 20 9 11 0 20 -2 20 -4z m915 -6 c-3 -5 -12 -10 -18
-10 -7 0 -6 4 3 10 19 12 23 12 15 0z m65 -45 c19 -14 30 -25 24 -25 -10 1
-73 50 -63 50 3 0 20 -11 39 -25z m250 -35 c0 -5 -4 -10 -10 -10 -5 0 -10 5
-10 10 0 6 5 10 10 10 6 0 10 -4 10 -10z m-180 -20 c11 -13 21 -17 25 -10 8
13 71 13 96 0 10 -6 19 -18 19 -28 0 -14 -2 -14 -9 -3 -6 10 -28 14 -68 13
-50 0 -60 3 -76 24 -22 29 -11 32 13 4z m155 -1 c11 -16 1 -19 -13 -3 -7 8 -8
14 -3 14 5 0 13 -5 16 -11z m468 -32 c3 -8 -1 -14 -8 -14 -7 0 -11 6 -8 14 3
7 6 13 8 13 2 0 5 -6 8 -13z m-437 -38 c0 -24 -16 -26 -17 -1 0 13 -2 12 -9
-5 -5 -13 -18 -23 -29 -23 -26 0 -34 15 -16 30 9 8 15 8 15 2 0 -6 -6 -13 -12
-15 -8 -3 -6 -6 4 -6 11 -1 20 9 24 23 7 29 40 25 40 -5z m444 -10 c0 -6 -4
-7 -10 -4 -5 3 -10 11 -10 16 0 6 5 7 10 4 6 -3 10 -11 10 -16z m-30 -55 c0
-8 -4 -12 -10 -9 -5 3 -10 10 -10 16 0 5 5 9 10 9 6 0 10 -7 10 -16z"/>
<path d="M38890 27222 c0 -6 -9 -8 -20 -5 -32 8 -103 -24 -145 -65 -78 -78
-109 -180 -109 -355 l0 -117 -37 -10 c-20 -6 -48 -19 -62 -30 -14 -11 -30 -20
-36 -20 -6 0 -11 -3 -11 -8 0 -4 38 -16 84 -26 46 -10 89 -21 95 -25 8 -5 -7
-27 -43 -63 -50 -51 -53 -58 -38 -70 25 -21 65 -21 58 -1 -5 13 -4 14 8 4 27
-23 78 4 102 52 l20 42 110 2 c95 1 122 5 214 36 58 19 138 52 178 73 85 46
84 34 16 195 -94 223 -221 365 -351 394 -20 4 -33 3 -33 -3z m19 -108 c126
-43 292 -211 388 -391 27 -49 35 -44 -113 -72 -69 -13 -137 -19 -224 -18 -110
2 -128 4 -147 22 l-21 20 25 19 25 19 -7 -24 c-7 -23 -7 -23 8 -4 10 12 12 24
6 30 -21 22 -7 22 17 0 55 -51 128 -41 172 25 l23 35 -41 17 c-69 30 -78 105
-17 152 31 24 31 25 13 45 -27 29 -77 36 -115 16 -60 -31 -94 -124 -74 -204
11 -41 3 -66 -28 -88 -18 -13 -19 -28 -5 -51 6 -11 1 -13 -20 -11 -16 2 -35
-1 -43 -5 -10 -6 -12 -5 -7 2 5 8 -1 13 -16 14 -13 0 -27 2 -33 3 -5 2 -14 4
-20 5 -5 1 -13 2 -17 1 -11 -1 -10 70 2 154 23 158 81 261 165 290 50 18 51
18 104 -1z"/>
<path d="M40357 27026 c-33 -18 -66 -55 -67 -74 0 -7 8 -15 18 -19 9 -3 27
-15 40 -26 40 -37 24 -121 -27 -138 -21 -7 -1 -37 36 -54 47 -23 87 -11 127
38 52 65 48 203 -8 256 -30 29 -83 36 -119 17z"/>
<path d="M40585 26837 c-64 -70 -114 -135 -108 -140 11 -12 23 -8 23 8 0 8 5
15 11 15 6 0 9 -7 5 -15 -11 -30 4 -14 42 44 32 48 61 112 50 111 -2 0 -12
-10 -23 -23z"/>
<path d="M38425 25659 c-11 -17 1 -21 15 -4 8 9 8 15 2 15 -6 0 -14 -5 -17
-11z"/>
<path d="M38471 25614 c0 -11 3 -14 6 -6 3 7 2 16 -1 19 -3 4 -6 -2 -5 -13z"/>
<path d="M38971 25534 c13 -16 29 -19 29 -5 0 5 -9 11 -21 14 -16 4 -18 3 -8
-9z"/>
<path d="M40302 25445 c-6 -14 -8 -25 -3 -25 8 0 23 41 17 47 -1 2 -8 -8 -14
-22z"/>
<path d="M40806 25394 c-3 -8 -2 -13 3 -9 5 3 12 -1 14 -7 4 -8 6 -7 6 4 1 23
-15 32 -23 12z"/>
<path d="M40275 25389 c-4 -6 -5 -12 -2 -15 2 -3 7 2 10 11 7 17 1 20 -8 4z"/>
<path d="M39132 25320 c3 -24 156 -198 175 -199 6 -1 13 -4 15 -8 6 -15 76
-62 135 -92 84 -43 163 -61 266 -61 169 0 286 49 409 171 62 62 79 74 95 67
17 -9 17 -8 -1 6 -10 8 -19 28 -20 45 -1 30 -16 33 -16 2 0 -17 -26 -42 -100
-97 -135 -99 -321 -143 -485 -115 -132 23 -290 113 -408 234 -51 51 -68 63
-65 47z"/>
<path d="M40733 25254 c-3 -8 -2 -19 3 -24 5 -5 9 1 9 16 0 28 -3 30 -12 8z"/>
<path d="M40338 25613 c12 -2 32 -2 45 0 12 2 2 4 -23 4 -25 0 -35 -2 -22 -4z"/>
<path d="M25535 29309 c-4 -6 -5 -12 -2 -15 2 -3 7 2 10 11 7 17 1 20 -8 4z"/>
<path d="M25476 29287 c-16 -12 -16 -13 3 -13 11 0 23 6 25 13 3 7 2 13 -2 13
-5 0 -16 -6 -26 -13z"/>
<path d="M25397 29256 c-7 -8 -25 -16 -38 -18 -16 -2 -24 -9 -23 -21 2 -14 -1
-15 -12 -6 -10 8 -14 8 -14 0 0 -6 -3 -10 -7 -9 -14 5 -73 -24 -68 -32 3 -4
-2 -7 -9 -6 -27 2 -195 -126 -278 -212 -182 -190 -242 -334 -268 -637 -19
-235 -9 -1162 16 -1415 7 -64 6 -65 -13 -47 -11 9 -23 14 -26 10 -4 -3 -7 0
-7 8 0 22 -82 86 -105 83 -21 -3 -68 33 -60 47 8 12 -26 41 -42 35 -8 -3 -12
-2 -9 2 3 4 -5 14 -17 22 -20 12 -21 12 -8 -3 19 -23 9 -21 -20 4 l-24 21 -6
-24 c-5 -16 -7 -18 -8 -5 -1 9 -6 17 -12 17 -5 0 -7 5 -3 12 5 7 3 8 -5 4 -7
-5 -10 -15 -7 -23 3 -8 1 -11 -4 -8 -6 3 -10 13 -10 21 0 27 -60 13 -60 -15
-1 -14 -2 -14 -11 2 -9 15 -13 16 -26 5 -28 -23 -62 -86 -58 -107 2 -12 0 -21
-4 -21 -14 0 -19 -51 -12 -107 5 -33 4 -50 -3 -46 -6 4 -6 -1 -2 -13 5 -10 9
-40 11 -65 1 -25 6 -57 11 -70 4 -13 7 -32 5 -42 -1 -10 7 -20 20 -25 21 -8
21 -9 3 -16 -19 -7 -19 -8 0 -22 11 -8 15 -14 8 -14 -8 0 -9 -7 -1 -27 6 -16
10 -29 9 -31 -4 -9 14 -73 23 -79 6 -4 7 -1 2 8 -5 8 -4 11 1 6 4 -4 9 -21 9
-37 1 -27 -4 -31 -50 -46 -230 -75 -681 -287 -935 -439 -267 -160 -553 -371
-753 -554 -42 -39 -81 -71 -86 -71 -9 0 -186 399 -180 404 2 1 21 12 41 25 57
34 144 134 177 204 78 164 81 347 9 520 -54 130 -203 346 -337 487 l-71 75
-71 -75 c-273 -290 -413 -587 -380 -808 23 -152 111 -313 211 -386 32 -22 65
-45 74 -51 15 -9 5 -32 -86 -197 l-102 -188 -93 0 -93 0 0 -54 c0 -30 7 -166
15 -303 8 -136 17 -291 20 -343 3 -52 7 -122 10 -155 3 -33 7 -105 10 -160 3
-55 23 -401 45 -770 72 -1206 109 -1828 115 -1955 4 -69 8 -149 10 -177 3 -47
-5 -73 -67 -225 -132 -326 -179 -438 -241 -573 -25 -55 -56 -125 -70 -155
-185 -412 -440 -1185 -561 -1695 -82 -350 -84 -367 -61 -473 10 -42 21 -85 26
-94 9 -17 -65 -18 -1497 -18 l-1507 0 8 241 c5 178 11 251 22 278 13 30 13 53
3 161 -10 106 -7 343 24 1570 63 2569 79 3320 72 3328 -4 4 -265 9 -580 12
l-573 5 -79 74 c-501 469 -1139 837 -1839 1064 -179 58 -432 125 -575 152
-127 24 -127 24 -133 39 -3 8 6 24 21 37 l27 24 -24 -27 c-14 -16 -20 -28 -14
-28 6 0 63 55 128 122 l117 122 -24 18 c-12 10 -17 17 -9 16 7 -2 16 3 19 11
3 9 0 11 -9 6 -8 -5 -10 -4 -6 0 14 16 33 13 33 -5 0 -10 -4 -16 -8 -14 -4 3
-8 0 -8 -5 0 -38 52 19 54 58 1 21 5 27 16 23 13 -5 13 -3 0 14 -8 10 -10 16
-6 12 5 -4 15 -3 23 4 10 8 17 7 29 -8 9 -10 12 -13 8 -5 -5 9 -3 12 4 7 7 -4
12 -14 12 -22 0 -32 58 -100 111 -129 25 -13 26 -13 24 8 -1 13 0 15 2 4 2 -9
9 -15 14 -12 5 3 6 -1 3 -9 -17 -45 98 8 160 74 26 27 46 52 46 55 0 3 10 16
23 28 13 12 16 18 7 12 -9 -5 0 4 19 22 38 34 36 59 -1 27 -13 -10 -18 -12
-11 -5 6 7 10 19 9 25 -2 6 -1 7 2 3 2 -4 10 -3 18 4 8 6 14 8 14 4 0 -4 16
12 35 36 19 24 35 49 35 55 0 6 7 17 15 24 8 7 15 20 14 29 0 12 -2 12 -10 -4
l-9 -20 3 20 c2 11 8 19 15 18 15 -4 35 34 26 49 -4 6 -3 8 3 5 6 -4 14 0 17
9 3 9 2 12 -4 9 -6 -4 -9 -1 -8 7 2 7 -2 12 -9 11 -7 -2 -10 4 -6 13 4 12 8
12 13 4 5 -9 10 -6 15 9 4 13 9 20 12 18 2 -3 0 -15 -7 -26 -6 -12 -7 -21 -3
-21 4 0 13 11 20 25 9 20 8 28 -4 40 -8 8 -11 15 -6 15 5 0 14 -5 20 -11 13
-13 28 24 17 42 -4 7 -3 9 3 6 12 -7 20 10 58 127 14 44 24 85 21 93 -3 8 -1
11 4 8 6 -3 10 -1 10 4 0 6 -5 11 -12 11 -6 0 -4 6 6 13 10 7 17 20 15 28 -1
7 1 22 6 32 13 31 -1 169 -21 205 -19 31 -46 48 -71 44 -7 -2 -13 1 -13 5 0 8
-15 9 -78 5 -31 -3 -18 -22 16 -23 23 -2 24 -2 5 -6 -12 -2 -32 1 -44 7 -18
10 -26 8 -52 -10 -16 -13 -27 -16 -23 -9 4 8 1 6 -7 -3 -8 -10 -19 -18 -24
-18 -13 0 -73 -30 -73 -37 0 -3 6 -3 13 0 8 3 20 1 28 -4 9 -6 2 -8 -22 -5
-31 4 -43 -1 -88 -41 -29 -25 -54 -43 -58 -40 -3 3 15 88 40 189 95 383 164
733 197 988 6 47 13 101 16 120 11 68 13 455 3 510 -22 117 -92 226 -186 291
-163 112 -375 167 -683 176 l-185 6 -137 68 c-442 221 -928 376 -1333 424
-187 23 -515 16 -656 -13 -205 -43 -393 -124 -538 -232 -224 -168 -349 -396
-417 -765 -26 -140 -31 -564 -9 -775 27 -271 99 -646 171 -898 4 -13 3 -22 -2
-21 -5 1 -11 0 -14 -1 -20 -9 -67 -4 -66 7 4 23 16 26 36 8 11 -10 20 -13 20
-7 0 16 -58 54 -71 46 -7 -4 -9 -3 -6 3 6 10 -73 55 -90 51 -5 0 -21 4 -36 10
-16 7 -34 12 -42 12 -18 0 -28 -17 -15 -25 14 -9 2 -25 -18 -24 -16 0 -16 1 0
7 14 6 14 10 4 24 -11 15 -15 15 -45 0 -19 -9 -36 -24 -39 -34 -2 -10 -8 -15
-13 -12 -5 3 -10 -1 -10 -8 -1 -7 -3 -24 -4 -38 -1 -14 -6 -34 -10 -44 -6 -14
-5 -17 3 -12 7 4 12 2 12 -3 0 -6 -4 -11 -10 -11 -6 0 -7 -19 -4 -47 3 -27 7
-56 7 -65 1 -9 4 -15 8 -12 4 2 9 -3 13 -11 3 -8 1 -15 -5 -15 -7 0 -8 -7 -4
-17 4 -10 8 -23 9 -30 1 -7 5 -15 8 -19 4 -3 4 -12 1 -20 -3 -8 0 -14 6 -14 6
0 10 -3 10 -7 -4 -23 2 -43 11 -38 5 3 7 0 4 -8 -5 -15 54 -162 83 -205 9 -15
18 -31 19 -37 0 -5 2 -16 2 -23 2 -15 22 -6 22 9 0 6 -5 7 -11 3 -8 -4 -7 0 1
15 9 18 30 21 30 5 0 -3 -4 -2 -10 1 -17 10 -11 -12 8 -31 15 -16 15 -17 0
-12 -10 4 -19 1 -22 -8 -3 -8 -2 -14 2 -14 4 0 16 -19 27 -43 20 -44 64 -110
78 -115 4 -2 5 -8 2 -12 -3 -5 -1 -11 4 -14 5 -4 13 -1 17 5 5 8 3 9 -7 4 -8
-5 -10 -4 -6 0 4 5 14 10 23 11 11 2 12 -1 4 -11 -20 -24 37 -119 66 -108 8 3
14 0 14 -7 0 -6 -5 -8 -11 -4 -7 4 -10 1 -7 -7 3 -8 33 -38 67 -67 46 -39 66
-51 74 -43 6 6 16 11 22 11 5 0 3 -4 -5 -10 -13 -8 -13 -10 1 -15 18 -7 92 22
85 34 -3 4 7 19 22 32 l27 24 -24 -27 c-14 -16 -20 -28 -14 -28 6 0 34 25 61
56 l50 56 29 -59 c16 -35 33 -58 41 -56 8 3 10 -1 5 -13 -5 -13 -3 -15 7 -9 9
6 11 4 5 -4 -8 -14 43 -74 55 -66 4 3 14 -3 21 -13 13 -15 12 -16 -3 -3 -10 7
-18 9 -18 4 0 -10 85 -83 97 -83 4 0 1 5 -7 10 -12 7 -10 9 7 7 17 -1 19 -4
11 -14 -8 -10 -4 -18 13 -33 35 -29 46 -24 18 8 l-24 27 27 -24 c15 -13 24
-29 21 -37 -3 -8 5 -18 21 -24 14 -5 26 -14 26 -20 0 -5 3 -9 8 -8 6 2 62 -48
62 -57 0 -2 -15 -7 -32 -10 -18 -4 -103 -30 -188 -57 -615 -198 -1209 -523
-1700 -931 -52 -44 -118 -102 -147 -130 l-51 -50 -458 8 -457 7 7 -138 c4 -77
9 -168 12 -204 4 -67 42 -705 69 -1150 8 -140 28 -482 45 -760 83 -1379 200
-3364 200 -3381 0 -19 -35 -19 -2054 -19 l-2053 0 -74 -34 -74 -35 83 0 c46
-1 81 -5 78 -9 -3 -5 -32 -17 -66 -27 l-60 -18 0 -595 0 -594 1013 3 1012 3 8
-49 c4 -28 25 -228 47 -445 23 -217 47 -458 55 -535 8 -77 21 -205 29 -285 9
-80 38 -363 65 -630 85 -815 448 -4336 676 -6560 119 -1158 218 -2114 220
-2126 l5 -21 2997 -6 c1649 -3 3824 -8 4833 -11 1009 -3 2812 -8 4005 -11
2972 -8 4839 -13 6675 -20 1492 -5 4190 -12 8060 -20 998 -2 3713 -9 6032 -15
2320 -7 4224 -10 4232 -7 8 3 17 27 21 59 8 63 40 278 60 403 8 50 26 167 40
260 14 94 34 226 45 295 11 69 31 202 45 295 14 94 28 184 30 200 3 17 12 77
20 135 9 58 20 130 25 160 5 30 12 78 15 105 4 28 8 57 10 65 3 8 11 65 20
125 9 61 18 121 20 135 6 31 28 176 60 390 14 91 27 176 29 190 2 14 7 46 10
71 4 25 9 57 11 70 6 34 53 337 58 379 7 45 42 278 61 400 8 52 17 113 21 135
3 22 12 81 20 130 7 50 16 108 20 130 3 22 12 81 20 130 7 50 21 140 30 200 9
61 18 121 21 135 2 14 13 87 24 162 11 76 29 193 39 260 11 68 22 139 24 158
8 59 37 250 52 340 8 47 17 103 20 125 3 22 30 204 60 405 30 201 59 390 65
420 5 30 32 206 60 390 56 370 166 1096 205 1345 14 88 34 221 45 295 10 74
42 284 70 465 28 182 77 508 110 725 33 217 62 409 65 425 3 17 16 102 29 190
14 88 40 265 60 393 20 128 36 234 36 236 0 12 194 16 809 16 l701 1 0 529 0
530 -1396 2 -1396 3 31 39 c75 94 128 259 117 365 -22 210 -239 991 -391 1406
-20 55 -43 120 -52 145 -33 98 -150 384 -220 538 -97 216 -173 396 -342 819
l-142 353 21 799 c11 440 20 843 20 896 l0 97 -162 -6 c-90 -4 -260 -11 -378
-16 -118 -5 -227 -10 -241 -10 -23 0 -32 11 -69 83 -151 290 -335 531 -447
587 -86 43 -202 26 -418 -61 -66 -27 -140 -51 -165 -54 -25 -3 -56 -8 -70 -10
-14 -3 -57 -7 -97 -10 -39 -3 -86 -8 -105 -10 -18 -3 -91 -7 -162 -10 l-128
-5 -113 50 c-317 140 -682 261 -1009 335 l-28 6 32 -58 c122 -215 140 -243
163 -248 12 -3 39 -8 59 -13 l37 -7 -53 -125 c-208 -490 -421 -899 -577 -1105
-104 -138 -290 -337 -401 -426 -32 -26 -37 -27 -42 -12 -5 19 -78 321 -127
527 l-28 119 40 80 c43 85 44 99 14 192 -7 22 -37 124 -66 228 -29 103 -56
187 -60 187 -3 0 -40 -119 -82 -265 l-76 -265 41 -73 41 -72 -33 -303 -33
-303 -35 33 c-49 47 -227 248 -304 343 -155 193 -361 484 -484 684 -21 35 -46
74 -54 87 -38 59 -260 441 -260 447 0 4 20 7 44 7 62 0 73 6 69 38 -2 19 22
69 85 177 72 123 95 154 128 173 l39 23 -35 -6 c-491 -73 -971 -220 -1442
-443 l-118 -55 -172 86 c-250 124 -384 161 -473 130 -143 -48 -341 -322 -586
-814 -75 -150 -80 -158 -111 -163 -18 -3 -184 -10 -368 -16 -184 -7 -337 -14
-339 -16 -4 -3 4 -150 61 -1144 l21 -375 -91 -230 c-268 -677 -306 -761 -697
-1540 -317 -632 -360 -721 -460 -956 l-62 -146 26 -10 c14 -6 72 -29 129 -52
56 -22 126 -51 155 -64 28 -14 80 -34 114 -47 37 -13 60 -27 56 -33 -4 -6 0
-8 10 -4 26 10 69 -13 62 -32 -5 -12 -3 -13 5 -5 13 13 53 6 44 -7 -3 -5 -10
-7 -15 -4 -5 3 -7 0 -4 -7 3 -7 -12 -34 -32 -59 -21 -26 -45 -57 -53 -69 -8
-12 -26 -37 -40 -56 -14 -18 -61 -83 -105 -143 l-80 -110 -45 0 c-32 -1 -61 8
-100 30 -98 55 -291 159 -295 159 -4 0 -13 -38 -20 -90 -3 -25 -8 -54 -10 -65
-2 -11 -4 -24 -4 -30 -1 -7 -243 -9 -711 -7 -390 1 -710 3 -710 5 0 1 10 31
21 67 45 141 43 185 -20 460 -30 128 -123 477 -138 516 -5 14 -2 16 13 12 18
-5 14 14 -38 195 -54 186 -67 216 -93 217 -6 0 -30 60 -55 133 -43 129 -151
422 -170 462 -5 11 -22 54 -39 95 -46 117 -60 148 -70 155 -6 3 6 39 25 82 20
42 33 85 31 95 -3 10 -2 16 3 13 18 -11 18 25 0 38 -14 10 -24 38 -35 92 -8
43 -16 79 -18 81 -1 2 -52 25 -112 52 l-108 48 -272 679 c-256 641 -437 1081
-519 1258 l-36 79 10 491 c5 271 17 781 26 1135 9 354 13 646 10 650 -4 4 -62
9 -128 12 l-121 5 -93 215 c-51 118 -94 220 -94 226 0 6 22 25 50 43 102 66
185 199 214 343 27 133 15 239 -43 380 -54 128 -199 336 -350 498 l-51 55 -78
-80 c-297 -305 -430 -624 -363 -870 43 -156 145 -301 248 -354 l41 -21 -120
-220 -120 -220 -69 0 -70 0 -117 106 c-206 189 -438 365 -665 505 -73 45 -133
83 -135 84 -2 2 11 31 28 64 17 34 28 67 24 73 -4 6 -3 8 3 5 12 -7 39 50 35
72 -2 7 1 10 7 6 7 -4 8 0 4 11 -4 11 -2 15 4 11 14 -9 83 166 87 220 0 11 4
19 8 17 7 -4 29 63 32 96 1 9 6 22 11 30 5 9 4 15 -4 18 -8 3 -6 9 6 19 13 10
14 16 6 19 -10 4 -9 9 2 21 18 17 19 33 3 33 -6 0 -3 7 8 15 17 13 17 14 2 15
-10 0 -18 4 -18 10 0 5 7 7 15 4 20 -8 19 6 -1 20 -14 11 -14 13 3 27 16 13
17 13 4 -3 -8 -11 -9 -18 -3 -18 17 0 19 9 27 92 7 82 -2 191 -15 183 -4 -3
-7 6 -7 19 0 75 -121 137 -202 104 -14 -6 -30 -10 -34 -9 -5 1 -5 -3 -2 -9 4
-6 1 -11 -6 -9 -26 3 -40 -1 -35 -10 3 -5 -2 -8 -12 -7 -12 1 -17 -7 -17 -28
0 -18 -6 -31 -15 -33 -12 -4 -12 -3 -1 5 16 12 -3 27 -21 16 -7 -5 -8 -3 -3 6
6 9 4 11 -4 6 -7 -5 -10 -15 -6 -25 5 -12 4 -13 -6 -4 -12 12 -43 -11 -126
-95 -17 -17 -34 -29 -36 -25 -2 5 6 116 19 248 67 727 56 1267 -30 1517 -50
143 -195 324 -338 422 l-56 38 -80 -31 c-92 -35 -308 -93 -432 -115 -186 -34
-347 -48 -545 -47 -193 0 -494 17 -525 29 -15 5 -26 6 -135 10 -45 2 -56 5
-45 13 12 8 11 9 -6 5 -13 -4 -29 1 -44 14 -13 11 -29 20 -36 20 -19 0 -84 32
-84 42 0 4 -16 8 -35 8 -18 0 -38 6 -42 14 -10 16 -66 46 -87 46 -8 0 -21 9
-29 20 -8 11 -27 25 -43 30 -72 23 -108 39 -119 53 -16 22 -90 49 -150 54 -27
3 -54 9 -59 14 -14 12 -22 11 -39 -5z m414 -586 c24 -11 37 -19 29 -19 -15 0
-91 38 -79 39 4 0 26 -9 50 -20z m-351 6 c0 -2 -7 -7 -16 -10 -8 -3 -12 -2 -9
4 6 10 25 14 25 6z m2051 -34 c-7 -2 -18 1 -23 6 -8 8 -4 9 13 5 13 -4 18 -8
10 -11z m-1586 -12 c3 -6 -1 -7 -9 -4 -18 7 -21 14 -7 14 6 0 13 -4 16 -10z
m-586 -23 c-2 -1 -13 -9 -24 -17 -19 -14 -19 -14 -6 3 7 9 18 17 24 17 6 0 8
-1 6 -3z m1758 -13 c-3 -3 -12 -4 -19 -1 -8 3 -5 6 6 6 11 1 17 -2 13 -5z
m-1130 -10 c-3 -3 -12 -4 -19 -1 -8 3 -5 6 6 6 11 1 17 -2 13 -5z m101 -15
c-7 -5 -20 -8 -28 -8 -10 0 -11 2 -2 6 6 2 10 8 7 13 -3 4 4 6 16 3 16 -4 17
-8 7 -14z m-728 1 c0 -5 -2 -10 -4 -10 -3 0 -8 5 -11 10 -3 6 -1 10 4 10 6 0
11 -4 11 -10z m787 -6 c-3 -3 -12 -4 -19 -1 -8 3 -5 6 6 6 11 1 17 -2 13 -5z
m936 -1 c-7 -2 -21 -2 -30 0 -10 3 -4 5 12 5 17 0 24 -2 18 -5z m-1803 -13
c-8 -5 -19 -10 -25 -10 -5 0 -3 5 5 10 8 5 20 10 25 10 6 0 3 -5 -5 -10z
m2465 0 c3 -6 -1 -7 -9 -4 -18 7 -21 14 -7 14 6 0 13 -4 16 -10z m-990 -19
c14 -6 8 -8 -22 -7 -23 0 -36 4 -30 8 15 9 26 9 52 -1z m-462 -8 c-7 -2 -19
-2 -25 0 -7 3 -2 5 12 5 14 0 19 -2 13 -5z m44 -19 c-3 -3 -12 -4 -19 -1 -8 3
-5 6 6 6 11 1 17 -2 13 -5z m378 -14 c3 -5 -1 -10 -9 -10 -9 0 -16 5 -16 10 0
6 4 10 9 10 6 0 13 -4 16 -10z m1095 -10 c0 -5 -7 -10 -16 -10 -8 0 -12 5 -9
10 3 6 10 10 16 10 5 0 9 -4 9 -10z m110 -84 c0 -6 -7 -2 -15 8 -12 16 -17 17
-30 6 -10 -8 -15 -9 -15 -1 0 6 4 11 10 11 5 0 7 8 3 18 -5 13 0 11 20 -7 15
-14 27 -29 27 -35z m-2790 9 c-7 -9 -15 -13 -19 -10 -3 3 1 10 9 15 21 14 24
12 10 -5z m-80 -39 c0 -2 -8 -10 -17 -17 -16 -13 -17 -12 -4 4 13 16 21 21 21
13z m2920 -38 c0 -5 -5 -8 -11 -8 -5 0 -7 5 -4 10 3 6 1 10 -4 10 -6 0 -11 8
-11 17 0 15 2 14 15 -3 8 -10 15 -22 15 -26z m-2910 -23 c0 -5 -5 -3 -10 5 -5
8 -10 20 -10 25 0 6 5 3 10 -5 5 -8 10 -19 10 -25z m2925 5 c-3 -5 -12 -10
-18 -10 -7 0 -6 4 3 10 19 12 23 12 15 0z m-2984 -23 c-10 -9 -11 -8 -5 6 3
10 9 15 12 12 3 -3 0 -11 -7 -18z m39 -11 c0 -3 -4 -8 -10 -11 -5 -3 -10 -1
-10 4 0 6 5 11 10 11 6 0 10 -2 10 -4z m-62 -30 c-1 -14 -5 -23 -9 -20 -7 4 0
44 7 44 2 0 3 -11 2 -24z m32 -7 c0 -6 -4 -7 -10 -4 -5 3 -10 11 -10 16 0 6 5
7 10 4 6 -3 10 -11 10 -16z m3024 5 c3 -8 2 -12 -4 -9 -6 3 -10 10 -10 16 0
14 7 11 14 -7z m13 -66 c-3 -7 -5 -2 -5 12 0 14 2 19 5 13 2 -7 2 -19 0 -25z
m14 -21 c-10 -9 -11 -8 -5 6 3 10 9 15 12 12 3 -3 0 -11 -7 -18z m49 -72 c0
-5 -9 5 -20 23 -26 42 -26 56 0 17 11 -16 20 -34 20 -40z m-3133 23 c-3 -7 -5
-2 -5 12 0 14 2 19 5 13 2 -7 2 -19 0 -25z m-45 0 c-7 -7 -12 -8 -12 -2 0 14
12 26 19 19 2 -3 -1 -11 -7 -17z m3128 18 c0 -2 -7 -7 -16 -10 -8 -3 -12 -2
-9 4 6 10 25 14 25 6z m-1750 -65 c9 -1 11 -4 4 -9 -5 -4 -18 -18 -27 -32 -9
-13 -17 -19 -17 -13 0 7 5 15 10 18 6 3 10 11 10 16 0 6 -4 8 -9 5 -5 -3 -11
0 -14 8 -4 9 0 13 11 11 9 -2 24 -4 32 -4z m68 -16 c-3 -3 -9 2 -12 12 -6 14
-5 15 5 6 7 -7 10 -15 7 -18z m338 12 c4 -3 14 -2 23 2 13 7 16 3 18 -23 1
-25 0 -27 -7 -11 -6 14 -9 16 -10 5 -2 -8 -2 -19 -1 -24 1 -5 -8 -2 -21 7 -13
8 -22 20 -20 26 1 6 -2 11 -8 11 -5 0 -10 4 -10 9 0 10 25 9 36 -2z m79 -17
c0 -5 9 -17 20 -26 19 -15 19 -15 -5 -1 -14 9 -24 20 -22 26 1 6 -2 11 -8 11
-5 0 -10 5 -10 12 0 9 3 9 13 0 6 -7 12 -17 12 -22z m78 5 c-3 -9 -8 -14 -10
-11 -3 3 -2 9 2 15 9 16 15 13 8 -4z m-707 -13 c-10 -2 -22 0 -28 6 -6 6 0 7
19 4 21 -5 23 -7 9 -10z m44 8 c0 -5 -2 -10 -4 -10 -3 0 -8 5 -11 10 -3 6 -1
10 4 10 6 0 11 -4 11 -10z m705 -19 c-6 -5 -25 10 -25 20 0 5 6 4 14 -3 8 -7
12 -15 11 -17z m1202 7 c-3 -8 -6 -5 -6 6 -1 11 2 17 5 13 3 -3 4 -12 1 -19z
m-1736 -2 c15 13 22 15 31 6 9 -9 7 -12 -9 -12 -12 0 -25 -5 -28 -10 -9 -15
-25 -2 -24 18 1 15 2 14 6 -1 5 -18 6 -18 24 -1z m679 -12 c0 -2 -7 -4 -15 -4
-8 0 -15 4 -15 10 0 5 7 7 15 4 8 -4 15 -8 15 -10z m-935 -4 c-3 -5 -12 -10
-18 -10 -7 0 -6 4 3 10 19 12 23 12 15 0z m82 -11 c4 -16 8 -17 14 -7 7 11 9
11 9 -1 0 -8 6 -11 18 -7 16 6 16 5 0 -7 -10 -8 -15 -17 -11 -20 3 -4 1 -7 -5
-7 -7 0 -12 4 -12 9 0 4 -11 20 -25 35 -18 20 -20 26 -9 26 9 0 18 -9 21 -21z
m43 11 c0 -5 -2 -10 -4 -10 -3 0 -8 5 -11 10 -3 6 -1 10 4 10 6 0 11 -4 11
-10z m770 -10 c0 -5 -7 -7 -15 -4 -8 4 -15 8 -15 10 0 2 7 4 15 4 8 0 15 -4
15 -10z m-675 -27 c-11 -7 -15 -13 -10 -13 4 0 6 -3 2 -6 -3 -4 -14 2 -24 12
-16 16 -16 17 -1 12 10 -4 19 -1 22 8 3 9 11 12 17 8 9 -5 6 -11 -6 -21z m69
19 c3 -5 -1 -9 -9 -9 -8 0 -12 4 -9 9 3 4 7 8 9 8 2 0 6 -4 9 -8z m459 -12 c3
-11 1 -18 -4 -14 -5 3 -9 0 -9 -7 0 -7 -2 -10 -5 -8 -4 5 5 49 10 49 1 0 5 -9
8 -20z m-846 4 c-3 -3 -12 -4 -19 -1 -8 3 -5 6 6 6 11 1 17 -2 13 -5z m28 -4
c3 -5 1 -10 -4 -10 -6 0 -11 5 -11 10 0 6 2 10 4 10 3 0 8 -4 11 -10z m1065 0
c0 -5 -5 -10 -11 -10 -5 0 -7 5 -4 10 3 6 8 10 11 10 2 0 4 -4 4 -10z m35 -8
c-3 -3 -11 0 -18 7 -9 10 -8 11 6 5 10 -3 15 -9 12 -12z m172 -7 c-4 -8 -14
-14 -24 -14 -17 1 -17 2 0 6 9 2 17 12 17 20 0 9 3 14 6 10 4 -3 4 -13 1 -22z
m-1613 0 c-10 -8 -26 -14 -34 -15 -8 0 -4 6 10 14 34 19 48 20 24 1z m66 11
c0 -2 -7 -7 -16 -10 -8 -3 -12 -2 -9 4 6 10 25 14 25 6z m985 -6 c-3 -5 -2
-10 3 -10 6 0 13 -8 16 -17 6 -15 5 -15 -13 1 -18 16 -20 36 -5 36 3 0 2 -4
-1 -10z m515 6 c0 -3 -4 -8 -10 -11 -5 -3 -10 -1 -10 4 0 6 5 11 10 11 6 0 10
-2 10 -4z m170 -6 c0 -5 -4 -10 -10 -10 -5 0 -10 5 -10 10 0 6 5 10 10 10 6 0
10 -4 10 -10z m-1645 -30 c-3 -5 -11 -10 -16 -10 -6 0 -7 5 -4 10 3 6 11 10
16 10 6 0 7 -4 4 -10z m410 0 c3 -5 1 -10 -4 -10 -6 0 -11 5 -11 10 0 6 2 10
4 10 3 0 8 -4 11 -10z m-475 -4 c0 -3 -4 -8 -10 -11 -5 -3 -10 -1 -10 4 0 6 5
11 10 11 6 0 10 -2 10 -4z m574 -8 c-3 -4 -11 -5 -19 -1 -21 7 -19 12 4 10 11
0 18 -5 15 -9z m1095 -9 c3 -11 1 -12 -11 -2 -8 7 -19 9 -23 5 -5 -4 -5 -1 -1
6 9 16 28 11 35 -9z m-1214 1 c3 -6 -1 -7 -9 -4 -18 7 -21 14 -7 14 6 0 13 -4
16 -10z m492 4 c-3 -3 -12 -4 -19 -1 -8 3 -5 6 6 6 11 1 17 -2 13 -5z m-421
-32 c-17 -16 -18 -16 -5 5 7 12 15 20 18 17 3 -2 -3 -12 -13 -22z m111 6 c-3
-8 -6 -5 -6 6 -1 11 2 17 5 13 3 -3 4 -12 1 -19z m-1210 -2 c0 -8 -6 -12 -15
-9 -11 5 -11 7 0 14 7 5 13 9 14 9 0 0 1 -6 1 -14z m242 -15 c-6 -2 -18 4 -27
13 -15 15 -15 15 10 4 15 -7 23 -15 17 -17z m2318 7 c-3 -8 -6 -5 -6 6 -1 11
2 17 5 13 3 -3 4 -12 1 -19z m-102 3 c3 -5 2 -12 -3 -15 -5 -3 -9 1 -9 9 0 17
3 19 12 6z m-942 -15 c3 -8 0 -17 -7 -19 -10 -4 -12 1 -9 14 6 23 9 24 16 5z
m1026 0 c-2 -2 -18 -7 -34 -11 l-30 -6 30 14 c27 13 45 14 34 3z m58 -2 c-3
-3 -12 -4 -19 -1 -8 3 -5 6 6 6 11 1 17 -2 13 -5z m370 -16 c-3 -8 -6 -5 -6 6
-1 11 2 17 5 13 3 -3 4 -12 1 -19z m-14246 -15 c17 -20 18 -23 3 -10 -11 9
-23 15 -26 12 -2 -3 -5 2 -5 10 0 19 -1 20 28 -12z m-61 7 c-8 -5 -19 -10 -25
-10 -5 0 -3 5 5 10 8 5 20 10 25 10 6 0 3 -5 -5 -10z m11360 -5 c0 -2 -10 -9
-22 -15 -22 -11 -22 -10 -4 4 21 17 26 19 26 11z m-300 -30 c0 -8 -4 -15 -10
-15 -5 0 -7 7 -4 15 4 8 8 15 10 15 2 0 4 -7 4 -15z m3046 -18 c1 -10 -2 -15
-7 -11 -5 3 -6 10 -3 16 4 6 -1 8 -13 4 -13 -4 -20 -2 -20 8 0 20 40 4 43 -17z
m-2855 -19 c-20 -23 -19 -23 -17 11 0 23 3 27 17 18 15 -9 15 -12 0 -29z m54
32 c-3 -5 -12 -10 -18 -10 -7 0 -6 4 3 10 19 12 23 12 15 0z m1228 3 c-7 -2
-19 -2 -25 0 -7 3 -2 5 12 5 14 0 19 -2 13 -5z m84 1 c-3 -3 -12 -4 -19 -1 -8
3 -5 6 6 6 11 1 17 -2 13 -5z m349 -53 c27 -24 58 -47 70 -52 12 -4 151 -11
308 -15 157 -4 284 -10 283 -14 -1 -3 16 -22 38 -41 52 -44 53 -45 103 -105
23 -29 42 -55 42 -59 0 -5 11 -23 24 -40 14 -18 28 -44 32 -59 3 -14 10 -26
14 -26 6 0 22 -33 86 -177 8 -17 14 -37 14 -45 0 -8 4 -18 9 -23 7 -8 37 -115
67 -240 37 -155 54 -446 37 -645 -3 -36 -6 -86 -7 -112 0 -25 -4 -44 -8 -41
-5 2 -8 -8 -8 -24 0 -15 -9 -46 -19 -68 -25 -55 -129 -191 -190 -248 l-50 -47
-111 0 c-120 0 -227 19 -276 49 -18 11 -48 50 -75 96 -39 69 -53 84 -117 126
-110 72 -171 93 -271 93 l-83 -1 33 18 c19 9 59 24 90 34 30 10 62 23 70 29
18 14 59 79 59 95 0 21 -20 11 -21 -11 -1 -20 -2 -21 -6 -4 -3 11 1 24 9 30
16 12 23 71 8 61 -6 -3 -10 -11 -10 -17 0 -7 -10 -23 -22 -36 -13 -14 -17 -22
-10 -18 18 11 15 -9 -5 -25 -14 -12 -16 -12 -8 0 6 11 4 13 -11 6 -10 -4 -44
-14 -74 -22 -136 -36 -170 -47 -161 -52 13 -9 -171 -5 -198 4 -25 8 -59 14
-106 20 -16 2 -55 7 -85 11 -62 8 -93 24 -132 68 -21 24 -28 27 -28 14 0 -10
5 -18 11 -18 5 0 7 -5 4 -10 -3 -6 -3 -20 0 -31 6 -17 9 -19 16 -8 5 8 9 9 9
3 0 -5 -5 -15 -12 -22 -9 -9 -9 -12 -1 -12 7 0 15 -9 18 -20 3 -11 11 -20 16
-20 6 0 17 -6 24 -14 8 -7 56 -24 107 -37 l93 -23 -78 -8 c-98 -9 -219 -42
-272 -73 -44 -26 -68 -47 -168 -153 -60 -62 -78 -75 -150 -103 -120 -46 -254
-71 -359 -67 -86 3 -88 4 -127 42 -22 21 -50 60 -63 85 -13 25 -30 55 -38 65
-12 16 -12 18 -1 11 11 -6 13 -4 8 9 -4 10 -7 22 -7 27 0 6 -4 8 -9 4 -6 -3
-15 5 -21 17 -10 21 -10 22 3 5 10 -12 17 -15 22 -7 4 6 2 17 -4 24 -6 7 -9
15 -6 18 5 5 -14 118 -23 132 -3 5 -6 37 -8 70 -2 64 -5 91 -30 276 -49 369
-56 441 -61 654 -6 246 2 347 40 466 11 36 21 67 22 70 0 3 4 11 9 18 7 11 4
11 -12 1 -12 -7 -18 -17 -15 -22 3 -5 -4 -4 -16 2 -25 14 -28 23 -4 14 11 -4
14 -3 9 5 -5 8 -1 10 10 5 13 -5 15 -3 9 8 -4 8 -4 11 0 6 5 -4 20 0 34 10 25
16 25 16 11 -2 -14 -16 -13 -17 5 -12 19 6 113 23 183 34 17 3 32 9 32 13 0 4
12 5 26 2 19 -3 25 -1 20 7 -4 6 -3 11 3 11 5 0 12 -4 15 -8 3 -5 25 -6 50 -2
24 4 127 3 228 -1 101 -4 262 -8 358 -8 195 -1 189 -3 268 73 l43 41 119 5
c65 3 121 7 123 10 3 3 46 3 95 0 89 -5 90 -5 138 -49z m-13056 34 c0 -6 -56
-35 -67 -35 -4 1 8 9 27 20 39 22 40 22 40 15z m270 -70 c36 -38 58 -64 48
-57 -13 10 -17 10 -22 0 -3 -8 -5 -7 -3 3 1 9 -17 34 -40 57 -24 22 -43 45
-43 50 0 6 -5 13 -10 15 -6 3 -7 5 -3 4 5 -1 37 -33 73 -72z m-255 35 c3 -5 1
-10 -4 -10 -6 0 -11 5 -11 10 0 6 2 10 4 10 3 0 8 -4 11 -10z m11116 -31 c-5
-13 -10 -19 -10 -12 -1 15 10 45 15 40 3 -2 0 -15 -5 -28z m-11221 7 c0 -3 -4
-8 -10 -11 -5 -3 -10 -1 -10 4 0 6 5 11 10 11 6 0 10 -2 10 -4z m11364 -14 c3
-5 -1 -9 -9 -9 -8 0 -12 4 -9 9 3 4 7 8 9 8 2 0 6 -4 9 -8z m-11398 -34 c2
-16 0 -16 -27 -3 -36 19 -36 21 -2 20 17 0 27 -6 29 -17z m-60 0 c4 -6 3 -8
-4 -4 -6 3 -13 2 -17 -4 -3 -5 -11 -10 -18 -10 -6 0 -2 7 9 15 23 18 21 17 30
3z m14034 -8 c8 -5 11 -10 5 -10 -5 0 -17 5 -25 10 -8 5 -10 10 -5 10 6 0 17
-5 25 -10z m520 -4 c0 -2 -8 -10 -17 -17 -16 -13 -17 -12 -4 4 13 16 21 21 21
13z m-14610 -14 c0 -5 -12 -14 -27 -21 -26 -12 -27 -14 -10 -26 13 -10 15 -14
5 -18 -7 -2 -19 -2 -26 1 -11 4 -11 6 0 13 10 7 10 9 -1 9 -8 0 0 11 19 25 38
28 40 29 40 17z m11464 -4 c-3 -5 -9 -6 -14 -3 -4 3 -10 0 -12 -7 -3 -8 -6 -7
-10 3 -4 11 1 15 17 15 13 0 21 -4 19 -8z m2893 -14 c-7 -7 -37 7 -37 17 0 6
9 5 21 -1 11 -7 19 -14 16 -16z m-2939 -9 c-3 -3 -9 2 -12 12 -6 14 -5 15 5 6
7 -7 10 -15 7 -18z m3156 9 c3 -8 2 -12 -4 -9 -6 3 -10 10 -10 16 0 14 7 11
14 -7z m-14040 -10 c3 -8 2 -12 -4 -9 -6 3 -10 10 -10 16 0 14 7 11 14 -7z
m31 -4 c10 -11 16 -20 13 -20 -3 0 -13 9 -23 20 -10 11 -16 20 -13 20 3 0 13
-9 23 -20z m13863 -5 c2 -1 -4 -5 -13 -9 -9 -3 -13 -2 -10 4 9 15 -7 12 -35
-6 l-25 -16 22 20 c12 11 19 23 15 27 -6 6 36 -12 46 -20z m-14513 -5 c3 -5 1
-10 -4 -10 -6 0 -11 5 -11 10 0 6 2 10 4 10 3 0 8 -4 11 -10z m11525 0 c0 -5
-5 -10 -11 -10 -5 0 -7 5 -4 10 3 6 8 10 11 10 2 0 4 -4 4 -10z m-10799 -62
c-11 -11 -13 -10 -6 0 9 16 -23 54 -38 45 -6 -4 -7 -1 -2 6 5 10 14 6 33 -13
22 -21 24 -28 13 -38z m-66 34 c-3 -3 -11 0 -18 7 -9 10 -8 11 6 5 10 -3 15
-9 12 -12z m13755 8 c0 -5 -2 -10 -4 -10 -3 0 -8 5 -11 10 -3 6 -1 10 4 10 6
0 11 -4 11 -10z m105 0 c-3 -5 -12 -10 -18 -10 -7 0 -6 4 3 10 19 12 23 12 15
0z m40 0 c-3 -5 -12 -10 -18 -10 -7 0 -6 4 3 10 19 12 23 12 15 0z m-14624
-27 c-8 -15 -10 -15 -11 -2 0 17 10 32 18 25 2 -3 -1 -13 -7 -23z m763 -4 c-3
-6 2 -19 12 -30 10 -11 12 -19 6 -19 -7 0 -15 0 -19 0 -5 0 -8 15 -9 35 0 19
3 32 8 29 5 -3 6 -10 2 -15z m-794 1 c-8 -5 -19 -10 -25 -10 -5 0 -3 5 5 10 8
5 20 10 25 10 6 0 3 -5 -5 -10z m11560 -4 c0 -3 -4 -8 -10 -11 -5 -3 -10 -1
-10 4 0 6 5 11 10 11 6 0 10 -2 10 -4z m3157 -15 c-10 -12 -9 -14 6 -8 12 4
16 3 11 -4 -4 -7 1 -9 17 -5 13 3 18 3 11 0 -6 -3 -9 -10 -6 -16 4 -6 -3 -5
-15 1 -12 7 -25 10 -29 7 -4 -3 -8 6 -8 18 0 12 6 23 13 23 10 0 10 -3 0 -16z
m-14775 -4 c-12 -7 -19 -16 -16 -20 11 -10 36 -9 30 2 -3 5 1 12 9 15 13 4 14
2 5 -14 -13 -23 -33 -26 -49 -6 -10 11 -8 17 6 25 10 6 23 10 28 10 6 0 0 -5
-13 -12z m198 -13 c0 -2 -7 -4 -15 -4 -8 0 -15 4 -15 10 0 5 7 7 15 4 8 -4 15
-8 15 -10z m730 -14 c0 -9 -26 -7 -36 2 -3 4 -3 12 1 18 7 12 35 -4 35 -20z
m-860 -5 c0 -8 -2 -15 -4 -15 -2 0 -6 7 -10 15 -3 8 -1 15 4 15 6 0 10 -7 10
-15z m93 -5 c3 -11 4 -20 3 -20 -1 0 -9 9 -19 20 -13 15 -14 20 -3 20 7 0 16
-9 19 -20z m60 -18 c-5 -11 -7 -11 -14 0 -7 11 -11 10 -19 -2 -5 -8 -10 -10
-10 -4 0 16 10 23 30 21 11 -1 16 -7 13 -15z m277 8 c0 -5 -4 -10 -10 -10 -5
0 -10 5 -10 10 0 6 5 10 10 10 6 0 10 -4 10 -10z m443 -7 c-4 -10 -2 -14 4
-10 5 3 10 0 10 -6 0 -7 -10 -14 -21 -15 -17 -1 -18 1 -6 8 12 8 12 10 1 10
-11 0 -11 3 -1 15 16 20 21 19 13 -2z m-1068 -3 c-3 -5 -12 -10 -18 -10 -7 0
-6 4 3 10 19 12 23 12 15 0z m235 6 c0 -2 -8 -10 -17 -17 -16 -13 -17 -12 -4
4 13 16 21 21 21 13z m11507 -28 c-3 -7 -5 -2 -5 12 0 14 2 19 5 13 2 -7 2
-19 0 -25z m-11283 13 c4 -5 -3 -7 -14 -4 -23 6 -26 13 -6 13 8 0 17 -4 20 -9z
m-200 -27 c3 -8 2 -12 -4 -9 -6 3 -10 10 -10 16 0 14 7 11 14 -7z m-259 -4
c-3 -5 -12 -10 -18 -10 -7 0 -6 4 3 10 19 12 23 12 15 0z m347 -22 c-6 -6 -12
-6 -17 3 -5 8 -4 10 3 5 7 -4 12 0 13 11 0 12 2 13 6 5 3 -8 1 -18 -5 -24z
m763 22 c4 -6 3 -10 -2 -9 -4 1 -10 0 -13 -1 -19 -7 -39 -7 -34 1 3 5 9 7 14
4 5 -3 11 -1 15 5 8 13 12 13 20 0z m-68 -42 c-3 -8 -6 -5 -6 6 -1 11 2 17 5
13 3 -3 4 -12 1 -19z m-1024 2 l167 -2 10 -37 c15 -56 78 -134 142 -175 23
-15 65 -18 307 -23 l281 -6 17 -24 c10 -14 28 -37 41 -51 39 -46 64 -82 55
-82 -4 0 -1 -6 7 -13 8 -7 23 -24 32 -38 l17 -27 -77 25 c-181 58 -344 37
-465 -61 -112 -89 -231 -318 -292 -560 -32 -127 -32 -139 6 -83 39 59 184 224
209 237 21 11 23 7 35 -62 7 -43 8 -43 64 -24 22 8 68 18 102 22 50 6 61 4 58
-7 -4 -11 -81 -55 -164 -93 -18 -9 67 -75 117 -92 68 -22 169 -16 228 15 58
30 92 65 124 125 21 40 26 62 26 126 0 65 -5 86 -29 134 -27 54 -27 56 -7 50
29 -10 89 -48 168 -107 l67 -50 -27 -50 c-45 -84 -146 -184 -224 -223 -135
-68 -237 -94 -393 -102 l-140 -6 55 -13 c91 -22 331 -28 433 -10 90 16 196 59
254 103 17 13 35 24 39 24 4 0 22 16 40 35 19 18 34 31 34 26 0 -4 -16 -22
-35 -41 -34 -33 -47 -70 -24 -70 8 0 8 -5 -1 -15 -10 -12 -10 -15 1 -15 10 0
10 -3 3 -8 -15 -10 -24 -112 -10 -112 6 0 5 -4 -3 -9 -8 -5 -11 -16 -8 -25 3
-8 2 -18 -4 -22 -6 -4 -8 -22 -4 -46 6 -31 4 -39 -5 -33 -8 5 -11 4 -7 -2 3
-5 0 -32 -8 -59 -8 -27 -24 -83 -36 -124 -12 -41 -32 -99 -45 -129 -13 -29
-21 -58 -17 -65 3 -6 3 -8 -2 -4 -10 9 -87 -141 -79 -154 5 -7 2 -8 -6 -3 -10
6 -12 4 -7 -9 4 -10 3 -15 -3 -11 -5 3 -16 -7 -24 -22 -36 -69 -225 -334 -266
-373 -8 -8 -40 -44 -70 -79 -30 -35 -80 -88 -112 -119 -32 -30 -55 -59 -52
-64 3 -4 0 -7 -8 -6 -7 2 -12 -3 -10 -10 1 -6 -2 -11 -6 -10 -5 2 -39 -24 -75
-56 -48 -44 -63 -63 -56 -72 7 -8 6 -15 -2 -20 -8 -5 -9 -3 -4 6 6 10 4 12 -9
7 -12 -5 -15 -3 -10 6 5 6 -6 -1 -23 -17 -18 -17 -30 -33 -27 -37 2 -4 -1 -11
-7 -15 -8 -4 -9 -3 -5 4 4 7 3 12 -2 12 -5 0 -12 -10 -15 -21 -4 -14 -11 -20
-21 -16 -8 3 -18 2 -21 -3 -20 -32 -203 -107 -306 -124 -86 -15 -287 40 -474
129 -51 25 -107 56 -124 71 -17 14 -31 22 -31 18 0 -4 -6 0 -13 11 -8 10 -19
15 -25 11 -7 -4 -12 -1 -12 7 0 16 -82 87 -100 87 -6 0 -8 4 -5 10 3 5 0 7 -9
4 -8 -3 -12 -12 -9 -20 3 -8 10 -11 16 -7 6 3 7 1 3 -5 -4 -6 -13 -9 -21 -6
-8 4 -12 10 -9 15 3 5 -3 9 -13 10 -14 0 -12 3 6 10 23 9 22 11 -49 77 -41 37
-123 117 -183 179 -61 62 -115 109 -120 106 -6 -3 -7 -1 -3 5 4 6 -25 50 -64
98 -39 47 -77 99 -85 114 -8 16 -18 30 -23 32 -4 1 -18 20 -31 41 -13 20 -27
34 -33 31 -6 -4 -8 -2 -5 4 4 5 -18 57 -48 114 -71 131 -116 260 -131 373 -9
75 -17 111 -26 122 -5 7 -7 17 -4 22 8 13 -13 153 -25 166 -5 5 -9 34 -9 65 0
44 -5 61 -25 84 -26 30 -31 41 -16 31 5 -3 13 -1 16 5 4 6 32 -15 65 -47 99
-99 206 -151 352 -174 89 -14 329 -6 408 14 l55 13 -140 6 c-126 6 -150 10
-245 43 -58 20 -131 51 -163 68 -63 33 -147 117 -195 195 l-31 50 67 65 c54
52 152 117 176 117 3 0 -7 -23 -22 -52 -72 -140 -18 -316 121 -391 35 -18 58
-22 132 -22 100 0 145 17 198 73 l28 29 -59 22 c-69 26 -122 57 -122 71 0 15
67 11 145 -10 39 -10 72 -16 74 -14 3 3 10 30 16 60 l11 56 90 -95 c50 -53
106 -118 125 -146 19 -28 37 -51 41 -51 9 0 -44 197 -77 288 -39 107 -108 239
-160 305 -47 59 -156 147 -182 147 -8 0 -12 4 -8 9 10 17 310 168 377 190 21
7 40 17 44 22 5 9 145 79 344 172 81 37 153 65 161 61 3 -2 81 -4 172 -4z
m273 -17 c-7 -7 -26 7 -26 19 0 6 6 6 15 -2 9 -7 13 -15 11 -17z m614 3 c0 -2
-7 -7 -16 -10 -8 -3 -12 -2 -9 4 6 10 25 14 25 6z m-512 -31 c-3 -3 -9 2 -12
12 -6 14 -5 15 5 6 7 -7 10 -15 7 -18z m757 14 c-4 -6 2 -17 14 -25 12 -8 21
-21 21 -27 0 -7 -6 -5 -14 5 -10 14 -15 15 -25 5 -10 -9 -11 -8 -6 6 5 10 2
17 -5 17 -10 0 -10 3 0 15 14 17 24 20 15 4z m10575 -43 c0 -3 -4 -8 -10 -11
-5 -3 -10 -1 -10 4 0 6 5 11 10 11 6 0 10 -2 10 -4z m3287 -38 c-3 -7 -5 -2
-5 12 0 14 2 19 5 13 2 -7 2 -19 0 -25z m-3280 -10 c-3 -8 -6 -5 -6 6 -1 11 2
17 5 13 3 -3 4 -12 1 -19z m10 -160 c-2 -13 -4 -3 -4 22 0 25 2 35 4 23 2 -13
2 -33 0 -45z m-10710 26 c-3 -3 -12 -4 -19 -1 -8 3 -5 6 6 6 11 1 17 -2 13 -5z
m130 0 c-3 -3 -12 -4 -19 -1 -8 3 -5 6 6 6 11 1 17 -2 13 -5z m68 -4 c8 -13
-5 -13 -25 0 -13 8 -13 10 2 10 9 0 20 -4 23 -10z m72 -53 c1 -11 1 -18 0 -16
-2 2 -8 11 -15 20 -9 12 -9 16 1 16 7 0 14 -9 14 -20z m10400 -49 c-2 -13 -4
-3 -4 22 0 25 2 35 4 23 2 -13 2 -33 0 -45z m-523 17 c-6 -16 -24 -21 -24 -7
0 11 11 22 21 22 5 0 6 -7 3 -15z m4501 -5 c3 -6 -1 -7 -9 -4 -9 3 -16 1 -16
-5 0 -6 -7 -8 -17 -4 -15 6 -15 7 3 14 27 11 32 10 39 -1z m-14365 -10 c0 -5
-4 -10 -10 -10 -5 0 -10 5 -10 10 0 6 5 10 10 10 6 0 10 -4 10 -10z m14295 0
c3 -6 -1 -7 -9 -4 -18 7 -21 14 -7 14 6 0 13 -4 16 -10z m-4522 -30 c-5 -19
-23 -39 -23 -25 0 9 20 45 24 45 2 0 2 -9 -1 -20z m-9779 -6 c3 -8 2 -12 -4
-9 -6 3 -10 10 -10 16 0 14 7 11 14 -7z m14404 -19 c-3 -3 -9 2 -12 12 -6 14
-5 15 5 6 7 -7 10 -15 7 -18z m-14365 -31 c1 -11 6 -25 11 -33 6 -9 5 -12 -5
-9 -8 3 -14 13 -15 24 -1 10 -4 30 -8 44 -5 20 -5 21 3 9 6 -9 12 -25 14 -35z
m-35 -17 c7 -16 8 -26 3 -23 -5 3 -14 20 -20 38 -13 38 0 26 17 -15z m14395
20 c3 -8 -1 -14 -8 -14 -7 0 -11 6 -8 14 3 7 6 13 8 13 2 0 5 -6 8 -13z
m-4233 -51 c0 -6 -4 -5 -9 3 -7 11 -9 11 -14 0 -3 -8 -4 -4 -4 8 1 17 4 19 14
11 7 -6 13 -16 13 -22z m260 24 c0 -5 -2 -10 -4 -10 -3 0 -8 5 -11 10 -3 6 -1
10 4 10 6 0 11 -4 11 -10z m30 -5 c0 -8 -4 -15 -10 -15 -5 0 -7 7 -4 15 4 8 8
15 10 15 2 0 4 -7 4 -15z m3566 -13 c-17 -16 -18 -16 -5 5 7 12 15 20 18 17 3
-2 -3 -12 -13 -22z m-14200 9 c-3 -5 8 -14 24 -21 16 -7 34 -18 40 -25 6 -8
-11 -1 -39 13 -31 17 -45 29 -38 34 16 10 19 10 13 -1z m10144 -1 c0 -5 -2
-10 -4 -10 -3 0 -8 5 -11 10 -3 6 -1 10 4 10 6 0 11 -4 11 -10z m444 -22 c-4
-6 -10 -5 -15 3 -14 22 -10 33 6 19 8 -7 12 -17 9 -22z m-10514 2 c0 -5 -7 -7
-15 -4 -8 4 -15 8 -15 10 0 2 7 4 15 4 8 0 15 -4 15 -10z m155 -18 c-3 -3 -11
0 -18 7 -9 10 -8 11 6 5 10 -3 15 -9 12 -12z m-45 -2 c0 -5 -2 -10 -4 -10 -3
0 -8 5 -11 10 -3 6 -1 10 4 10 6 0 11 -4 11 -10z m10169 7 c-2 -1 -13 -9 -24
-17 -19 -14 -19 -14 -6 3 7 9 18 17 24 17 6 0 8 -1 6 -3z m36 -18 c-4 -5 -12
-9 -18 -8 -9 0 -8 2 1 6 6 2 9 10 6 15 -4 7 -2 8 5 4 6 -4 9 -12 6 -17z m212
-1 c-3 -8 -6 -5 -6 6 -1 11 2 17 5 13 3 -3 4 -12 1 -19z m3555 15 c-6 -2 -9
-10 -6 -15 4 -7 2 -8 -5 -4 -13 9 -5 26 12 25 9 0 8 -2 -1 -6z m-13957 -43
c10 -17 24 -11 20 8 -2 11 3 19 10 19 8 0 12 -4 9 -8 -2 -4 0 -10 6 -14 16
-10 12 -28 -5 -21 -12 4 -14 -1 -10 -27 4 -22 2 -28 -4 -17 -5 8 -7 18 -5 22
3 5 -6 6 -20 2 -16 -4 -26 -2 -26 5 0 6 7 8 15 5 18 -7 20 7 3 24 -15 15 -32
16 -22 1 5 -8 1 -8 -14 0 -11 6 -23 11 -27 11 -3 0 -3 -5 1 -11 4 -8 0 -8 -15
0 -29 16 -27 19 14 15 22 -1 33 1 29 8 -4 6 2 6 14 -1 12 -6 24 -16 27 -21z
m13442 -2 c-3 -8 -6 -5 -6 6 -1 11 2 17 5 13 3 -3 4 -12 1 -19z m-3208 -11 c0
-9 -2 -8 -6 1 -2 6 -9 10 -14 6 -5 -3 -5 -13 1 -25 6 -10 8 -19 5 -19 -3 0 -8
-1 -12 -2 -11 -4 -10 34 0 49 11 15 27 8 26 -10z m4011 20 c0 -2 -10 -12 -22
-23 l-23 -19 19 23 c18 21 26 27 26 19z m-125 -17 c-3 -5 -12 -10 -18 -10 -7
0 -6 4 3 10 19 12 23 12 15 0z m-173 -25 c3 -14 1 -25 -3 -25 -5 0 -9 11 -9
25 0 14 2 25 4 25 2 0 6 -11 8 -25z m-3688 -36 c-9 -15 -24 10 -17 29 5 12 7
12 15 -2 5 -9 6 -21 2 -27z m263 19 c-3 -8 -6 -5 -6 6 -1 11 2 17 5 13 3 -3 4
-12 1 -19z m2950 0 c-3 -8 -6 -5 -6 6 -1 11 2 17 5 13 3 -3 4 -12 1 -19z m440
6 c-3 -3 -12 -4 -19 -1 -8 3 -5 6 6 6 11 1 17 -2 13 -5z m38 -54 c3 -5 1 -10
-4 -10 -6 0 -11 5 -11 10 0 6 2 10 4 10 3 0 8 -4 11 -10z m-3558 -32 c-3 -7
-5 -2 -5 12 0 14 2 19 5 13 2 -7 2 -19 0 -25z m38 -8 c3 -5 1 -10 -4 -10 -6 0
-11 5 -11 10 0 6 2 10 4 10 3 0 8 -4 11 -10z m3945 -40 c0 -5 -2 -10 -4 -10
-3 0 -8 5 -11 10 -3 6 -1 10 4 10 6 0 11 -4 11 -10z m-3957 -30 c-3 -11 -10
-23 -16 -27 -5 -3 -8 -2 -5 3 3 5 8 17 11 27 9 24 16 22 10 -3z m3961 -5 c3
-8 1 -15 -3 -15 -5 0 -11 7 -15 15 -3 8 -1 15 3 15 5 0 11 -7 15 -15z m-3837
-27 c-3 -8 -6 -5 -6 6 -1 11 2 17 5 13 3 -3 4 -12 1 -19z m-764 -68 c-3 -11
-7 -20 -9 -20 -2 0 -4 9 -4 20 0 11 4 20 9 20 5 0 7 -9 4 -20z m7 -38 c0 -5
-7 -17 -15 -28 -14 -18 -14 -17 -4 9 12 27 19 34 19 19z m-9656 -88 c3 -8 2
-12 -4 -9 -6 3 -10 10 -10 16 0 14 7 11 14 -7z m10380 1 c3 -8 1 -15 -4 -15
-6 0 -10 7 -10 15 0 8 2 15 4 15 2 0 6 -7 10 -15z m-9774 -5 c13 -9 13 -10 0
-10 -8 0 -22 5 -30 10 -13 9 -13 10 0 10 8 0 22 -5 30 -10z m13287 -12 c-3 -8
-6 -5 -6 6 -1 11 2 17 5 13 3 -3 4 -12 1 -19z m-17662 2 c-3 -5 -12 -10 -18
-10 -7 0 -6 4 3 10 19 12 23 12 15 0z m4200 0 c-3 -5 -11 -10 -16 -10 -6 0 -7
5 -4 10 3 6 11 10 16 10 6 0 7 -4 4 -10z m-465 -20 c-12 -22 -21 -26 -17 -7 2
10 17 26 25 27 1 0 -2 -9 -8 -20z m14224 -5 c-4 -8 -11 -15 -16 -15 -6 0 -5 6
2 15 7 8 14 15 16 15 2 0 1 -7 -2 -15z m-707 -27 c-3 -7 -5 -2 -5 12 0 14 2
19 5 13 2 -7 2 -19 0 -25z m-17437 2 c0 -5 -5 -10 -11 -10 -5 0 -7 5 -4 10 3
6 8 10 11 10 2 0 4 -4 4 -10z m284 -32 c-3 -5 -11 -8 -17 -8 -8 0 -8 3 2 9 9
6 10 11 2 15 -6 4 -11 12 -11 19 0 6 6 2 14 -8 8 -11 12 -23 10 -27z m4307 19
c-10 -9 -11 -8 -5 6 3 10 9 15 12 12 3 -3 0 -11 -7 -18z m-708 0 c-3 -4 -11
-6 -19 -3 -8 3 -14 0 -14 -6 0 -6 -3 -9 -6 -5 -10 10 6 26 26 24 10 -1 16 -5
13 -10z m77 -17 c-8 -5 -19 -10 -25 -10 -5 0 -3 5 5 10 8 5 20 10 25 10 6 0 3
-5 -5 -10z m14179 -33 c-17 -32 -18 -32 -15 -1 5 37 4 36 16 29 7 -4 6 -14 -1
-28z m-3992 1 c-3 -8 -6 -5 -6 6 -1 11 2 17 5 13 3 -3 4 -12 1 -19z m3257 -10
c-8 -15 -17 -28 -20 -28 -2 0 0 9 6 20 6 11 9 24 6 29 -3 4 1 8 9 8 12 0 12
-5 -1 -29z m-17357 16 c-3 -3 -12 -4 -19 -1 -8 3 -5 6 6 6 11 1 17 -2 13 -5z
m354 -11 c13 -16 12 -17 -3 -5 -9 8 -22 11 -27 8 -5 -4 -12 -2 -16 4 -11 18
32 11 46 -7z m3779 13 c0 -2 -8 -10 -17 -17 -16 -13 -17 -12 -4 4 13 16 21 21
21 13z m-3529 -29 c-10 -9 -11 -8 -5 6 3 10 9 15 12 12 3 -3 0 -11 -7 -18z
m3176 -2 c-23 -22 -33 -18 -12 5 10 11 20 18 23 16 2 -3 -3 -12 -11 -21z
m9827 -1 c3 -8 2 -12 -4 -9 -6 3 -10 10 -10 16 0 14 7 11 14 -7z m-13274 2 c0
-2 -7 -7 -16 -10 -8 -3 -12 -2 -9 4 6 10 25 14 25 6z m61 -13 c13 -16 12 -17
-3 -4 -17 13 -22 21 -14 21 2 0 10 -8 17 -17z m3736 -2 c0 -11 -5 -18 -9 -15
-4 3 -5 11 -1 19 7 21 12 19 10 -4z m-3778 -12 c-22 -13 -31 -11 -17 5 7 8 17
12 22 9 4 -3 2 -9 -5 -14z m3454 7 c4 -10 1 -13 -8 -9 -8 3 -12 9 -9 14 7 12
11 11 17 -5z m294 0 c0 -8 -9 -14 -19 -13 -18 1 -18 2 -2 14 22 16 21 16 21
-1z m-3497 -10 c-6 -6 -15 -11 -19 -11 -4 0 -20 -13 -36 -30 -15 -16 -22 -21
-14 -10 26 39 50 62 65 62 10 0 12 -3 4 -11z m-125 -48 c5 -5 5 -8 -2 -8 -5 0
-22 11 -37 25 -21 19 -26 21 -26 8 0 -14 -3 -14 -12 -5 -10 10 -10 15 2 22 10
6 22 2 40 -13 14 -12 29 -25 35 -29z m13168 27 c-7 -21 -12 -19 -10 4 0 11 5
18 9 15 4 -3 5 -11 1 -19z m-9597 -27 c4 -7 3 -8 -4 -4 -7 4 -12 2 -12 -5 0
-7 -3 -10 -6 -6 -6 5 3 27 11 27 2 0 7 -5 11 -12z m10274 -32 c0 -26 -6 -18
-14 19 -5 22 -4 26 4 15 5 -8 10 -24 10 -34z m-13862 14 c12 -20 12 -21 -13
-4 -28 18 -31 24 -12 24 7 0 18 -9 25 -20z m13187 -6 c9 -15 12 -23 6 -20 -11
7 -35 46 -28 46 3 0 12 -12 22 -26z m3622 4 c-3 -8 -6 -5 -6 6 -1 11 2 17 5
13 3 -3 4 -12 1 -19z m-16867 2 c0 -5 -2 -10 -4 -10 -3 0 -8 5 -11 10 -3 6 -1
10 4 10 6 0 11 -4 11 -10z m164 -6 c3 -8 2 -12 -4 -9 -6 3 -10 10 -10 16 0 14
7 11 14 -7z m3446 -24 c-6 -11 -13 -20 -16 -20 -2 0 0 9 6 20 6 11 13 20 16
20 2 0 0 -9 -6 -20z m11470 4 c0 -8 -5 -12 -10 -9 -6 4 -8 11 -5 16 9 14 15
11 15 -7z m-1760 -9 c0 -8 -2 -15 -4 -15 -2 0 -6 7 -10 15 -3 8 -1 15 4 15 6
0 10 -7 10 -15z m628 -10 c-3 -3 -9 2 -12 12 -6 14 -5 15 5 6 7 -7 10 -15 7
-18z m1192 10 c0 -12 -19 -12 -23 0 -4 9 -1 12 9 8 7 -3 14 -7 14 -8z m550
-11 c0 -2 -9 0 -20 6 -11 6 -20 13 -20 16 0 2 9 0 20 -6 11 -6 20 -13 20 -16z
m1914 18 c2 -4 -4 -8 -14 -8 -10 0 -16 4 -14 8 3 4 9 8 14 8 5 0 11 -4 14 -8z
m-2496 -27 c-3 -3 -9 2 -12 12 -6 14 -5 15 5 6 7 -7 10 -15 7 -18z m217 15
c-3 -5 -12 -10 -18 -10 -7 0 -6 4 3 10 19 12 23 12 15 0z m281 -18 c-17 -16
-18 -16 -5 5 7 12 15 20 18 17 3 -2 -3 -12 -13 -22z m-416 8 c-8 -5 -19 -10
-25 -10 -5 0 -3 5 5 10 8 5 20 10 25 10 6 0 3 -5 -5 -10z m-1911 -34 c-3 -3
-11 5 -18 17 -13 21 -12 21 5 5 10 -10 16 -20 13 -22z m428 12 c-3 -8 -6 -5
-6 6 -1 11 2 17 5 13 3 -3 4 -12 1 -19z m1958 12 c-3 -5 -12 -10 -19 -10 -8 0
-21 -10 -29 -23 -8 -13 -22 -24 -31 -24 -15 0 -12 12 2 12 4 0 19 13 34 28 26
26 56 38 43 17z m1675 0 c0 -5 -2 -10 -4 -10 -3 0 -8 5 -11 10 -3 6 -1 10 4
10 6 0 11 -4 11 -10z m-13804 -12 c4 -7 3 -8 -4 -4 -7 4 -12 3 -12 -3 0 -5 3
-11 8 -14 4 -2 1 -2 -5 -1 -7 2 -13 -2 -13 -8 0 -6 -3 -9 -6 -6 -5 6 13 48 21
48 2 0 7 -5 11 -12z m46 -30 c-6 -6 -12 -5 -17 3 -6 8 -4 10 5 4 10 -6 12 -4
7 7 -3 9 -3 19 1 23 4 4 9 -1 10 -10 2 -9 -1 -22 -6 -27z m11688 32 c8 -5 11
-10 5 -10 -5 0 -17 5 -25 10 -8 5 -10 10 -5 10 6 0 17 -5 25 -10z m55 0 c-3
-5 -12 -10 -18 -10 -7 0 -6 4 3 10 19 12 23 12 15 0z m1960 0 c3 -5 1 -10 -4
-10 -6 0 -11 5 -11 10 0 6 2 10 4 10 3 0 8 -4 11 -10z m-3782 -7 c-7 -2 -19
-2 -25 0 -7 3 -2 5 12 5 14 0 19 -2 13 -5z m3714 -15 c-3 -8 -6 -5 -6 6 -1 11
2 17 5 13 3 -3 4 -12 1 -19z m382 0 c-16 -31 -16 -31 -23 -13 -3 9 -2 14 3 11
5 -3 11 1 15 9 3 8 8 15 11 15 3 0 0 -10 -6 -22z m-4306 -19 c-8 -8 -13 -7
-18 2 -5 8 -4 10 3 5 7 -4 12 -2 12 5 0 7 3 9 7 6 4 -4 2 -12 -4 -18z m2092
-7 c-3 -3 -11 0 -18 7 -9 10 -8 11 6 5 10 -3 15 -9 12 -12z m-1644 -19 c-12
-20 -14 -14 -5 12 4 9 9 14 11 11 3 -2 0 -13 -6 -23z m-433 -18 c-3 -3 -9 2
-12 12 -6 14 -5 15 5 6 7 -7 10 -15 7 -18z m-9791 -17 c-3 -8 -6 -5 -6 6 -1
11 2 17 5 13 3 -3 4 -12 1 -19z m563 -2 c0 -14 -3 -27 -7 -29 -5 -3 -8 8 -8
24 0 16 3 29 8 29 4 0 7 -11 7 -24z m9241 1 c-10 -9 -11 -8 -5 6 3 10 9 15 12
12 3 -3 0 -11 -7 -18z m444 -7 c3 -6 -1 -7 -9 -4 -18 7 -21 14 -7 14 6 0 13
-4 16 -10z m-14145 -15 c7 -9 8 -15 2 -15 -5 0 -12 7 -16 15 -3 8 -4 15 -2 15
2 0 9 -7 16 -15z m687 -32 c-3 -10 -5 -2 -5 17 0 19 2 27 5 18 2 -10 2 -26 0
-35z m13058 37 c-3 -5 -12 -10 -18 -10 -7 0 -6 4 3 10 19 12 23 12 15 0z
m-9277 -32 c-7 -12 -13 -29 -13 -37 0 -8 -7 -16 -15 -18 -11 -3 -11 -2 -3 4 8
6 9 14 3 23 -6 8 -10 20 -10 25 0 6 4 3 9 -4 8 -12 12 -10 22 12 7 15 14 25
16 23 3 -2 -1 -15 -9 -28z m9903 9 c-10 -9 -11 -8 -5 6 3 10 9 15 12 12 3 -3
0 -11 -7 -18z m3543 7 c3 -8 2 -12 -4 -9 -6 3 -10 10 -10 16 0 14 7 11 14 -7z
m-371 -1 c-7 -2 -19 -2 -25 0 -7 3 -2 5 12 5 14 0 19 -2 13 -5z m-3803 -14 c0
7 5 9 10 6 6 -3 10 -10 10 -15 0 -12 -28 -6 -43 10 -10 12 -9 12 6 1 12 -10
17 -10 17 -2z m660 2 c0 -5 -7 -12 -16 -15 -14 -5 -15 -4 -4 9 14 17 20 19 20
6z m-633 -48 c0 -9 -4 -10 -14 -2 -7 6 -13 12 -13 14 0 1 6 2 13 2 8 0 14 -6
14 -14z m3758 7 c3 -5 2 -10 -4 -10 -5 0 -13 5 -16 10 -3 6 -2 10 4 10 5 0 13
-4 16 -10z m292 -25 c-23 -22 -33 -18 -12 5 10 11 20 18 23 16 2 -3 -3 -12
-11 -21z m-17800 -17 c-3 -7 -5 -2 -5 12 0 14 2 19 5 13 2 -7 2 -19 0 -25z
m13761 -13 c-3 -3 -9 2 -12 12 -6 14 -5 15 5 6 7 -7 10 -15 7 -18z m369 3 c-3
-8 -6 -5 -6 6 -1 11 2 17 5 13 3 -3 4 -12 1 -19z m3722 -1 c-8 -7 -24 -25 -34
-40 -18 -27 -18 -27 -32 -7 -8 11 -12 26 -10 33 3 7 6 5 6 -5 1 -22 21 -18 49
10 12 12 25 22 30 22 4 0 0 -6 -9 -13z m-4015 -35 c3 -5 -1 -9 -9 -9 -8 0 -12
4 -9 9 3 4 7 8 9 8 2 0 6 -4 9 -8z m286 4 c0 -2 -7 -7 -16 -10 -8 -3 -12 -2
-9 4 6 10 25 14 25 6z m25 -6 c-3 -5 -1 -10 4 -10 6 0 11 -4 11 -8 0 -17 -26
-8 -27 10 -1 10 3 18 8 18 6 0 7 -4 4 -10z m-10478 -32 c-3 -7 -5 -2 -5 12 0
14 2 19 5 13 2 -7 2 -19 0 -25z m691 7 c-3 -3 -9 2 -12 12 -6 14 -5 15 5 6 7
-7 10 -15 7 -18z m9475 -8 c4 3 7 4 7 0 0 -18 -20 -13 -41 11 l-24 27 26 -23
c14 -12 29 -19 32 -15z m3656 -12 c16 -20 16 -20 -6 -1 -13 11 -23 26 -22 35
0 14 1 14 6 1 3 -8 13 -24 22 -35z m-17199 31 c0 -3 -4 -8 -10 -11 -5 -3 -10
-1 -10 4 0 6 5 11 10 11 6 0 10 -2 10 -4z m13835 -35 c-6 -5 -25 10 -25 20 0
5 6 4 14 -3 8 -7 12 -15 11 -17z m-14075 -9 c0 -15 -2 -15 -10 -2 -13 20 -13
33 0 25 6 -3 10 -14 10 -23z m13798 -4 c-2 -7 3 -12 10 -10 8 1 11 -2 7 -8 -5
-8 -11 -8 -21 1 -7 6 -11 15 -8 20 8 13 14 11 12 -3z m1966 -65 c5 -55 3 -73
-6 -73 -10 0 -12 20 -10 76 2 42 5 74 6 72 2 -1 6 -36 10 -75z m1722 41 c2
-12 -1 -13 -12 -3 -7 6 -11 16 -8 21 7 11 17 3 20 -18z m-13659 -21 c-3 -10
-5 -4 -5 12 0 17 2 24 5 18 2 -7 2 -21 0 -30z m13713 33 c0 -2 -9 -6 -20 -9
-11 -3 -18 -1 -14 4 5 9 34 13 34 5z m-3666 -18 c-3 -4 2 -11 11 -14 13 -6 14
-8 3 -15 -20 -13 -31 -11 -25 5 3 7 1 18 -4 23 -6 6 -4 10 5 10 8 0 13 -4 10
-9z m3795 -14 c-6 -8 -17 -14 -23 -14 -6 0 -3 5 7 11 9 6 14 15 11 21 -4 7 -2
8 5 4 9 -6 9 -11 0 -22z m-3825 0 c5 -14 4 -15 -9 -4 -17 14 -19 20 -6 20 5 0
12 -7 15 -16z m156 1 c-14 -8 -32 -14 -40 -14 -8 0 -1 6 15 14 40 18 57 18 25
0z m3549 -11 c13 -12 -8 -10 -29 2 l-25 15 25 -7 c14 -3 27 -8 29 -10z m67 -9
c-24 -18 -33 -19 -42 -3 -5 8 -2 9 9 5 9 -3 19 -2 22 3 4 6 12 10 18 10 7 0 3
-7 -7 -15z m-3686 -5 c-20 -13 -33 -13 -25 0 3 6 14 10 23 10 15 0 15 -2 2
-10z m1325 -41 c55 -6 163 -15 240 -19 l140 -7 -207 -1 c-165 -2 -208 -5 -208
-15 0 -14 50 -25 215 -49 52 -7 184 -13 310 -12 181 0 242 4 345 22 222 39
262 61 113 63 l-88 1 105 14 c57 7 105 12 107 11 6 -6 -18 -197 -31 -247 -38
-146 -101 -246 -180 -284 -73 -35 -169 -13 -208 48 -21 34 -26 36 -63 31 -22
-3 -65 -7 -97 -10 -49 -5 -61 -11 -95 -44 -92 -92 -222 -73 -312 46 -50 67
-130 223 -181 354 -45 117 -47 122 -22 115 9 -3 62 -10 117 -17z m-15153 -11
c-7 -7 -12 -8 -12 -2 0 14 12 26 19 19 2 -3 -1 -11 -7 -17z m315 -20 c-3 -8
-6 -5 -6 6 -1 11 2 17 5 13 3 -3 4 -12 1 -19z m3809 9 c8 3 14 0 14 -7 0 -6
-5 -8 -12 -4 -8 5 -9 2 -5 -9 3 -10 2 -17 -3 -17 -6 0 -10 4 -10 9 0 5 -2 15
-3 23 -2 7 -2 10 0 6 2 -4 11 -4 19 -1z m-4149 -29 c-3 -8 -6 -5 -6 6 -1 11 2
17 5 13 3 -3 4 -12 1 -19z m114 -131 c-10 -9 -11 -8 -5 6 3 10 9 15 12 12 3
-3 0 -11 -7 -18z m367 -62 c-3 -3 -9 2 -12 12 -6 14 -5 15 5 6 7 -7 10 -15 7
-18z m3513 5 c6 0 7 5 3 12 -4 7 -3 8 4 4 6 -4 9 -13 5 -22 -4 -11 -9 -12 -19
-3 -8 6 -14 17 -13 23 0 7 2 6 6 -1 2 -7 9 -13 14 -13z m-3481 0 c0 -5 -5 -10
-11 -10 -5 0 -7 5 -4 10 3 6 8 10 11 10 2 0 4 -4 4 -10z m3470 -25 c7 -9 8
-15 2 -15 -5 0 -12 7 -16 15 -3 8 -4 15 -2 15 2 0 9 -7 16 -15z m-3521 -14
c12 -22 -11 -52 -24 -31 -4 6 -3 10 2 9 19 -3 23 2 13 21 -6 11 -8 20 -6 20 3
0 10 -9 15 -19z m-249 -31 c9 -5 8 -9 -3 -13 -9 -3 -23 4 -34 15 -10 12 -12
18 -5 14 7 -4 12 -2 12 6 0 10 2 10 9 -1 5 -7 14 -17 21 -21z m3502 6 c7 4 8
2 4 -5 -9 -13 -26 -5 -25 12 0 9 2 8 6 -1 2 -6 10 -9 15 -6z m268 11 c0 -2
-10 -12 -22 -23 l-23 -19 19 23 c18 21 26 27 26 19z m-3725 -25 c-3 -3 -11 0
-18 7 -9 10 -8 11 6 5 10 -3 15 -9 12 -12z m3545 14 c0 -2 -7 -7 -16 -10 -8
-3 -12 -2 -9 4 6 10 25 14 25 6z m130 -8 c0 -4 -8 -8 -17 -8 -13 0 -14 -3 -5
-12 14 -14 16 -32 3 -23 -6 3 -14 -3 -20 -12 -6 -10 -11 -13 -11 -7 0 5 5 15
12 22 8 8 8 15 0 25 -7 8 -10 16 -7 18 7 8 45 5 45 -3z m-3520 -3 c0 -2 -10
-10 -22 -16 -21 -11 -22 -11 -9 4 13 16 31 23 31 12z m380 -15 c0 -5 -2 -10
-4 -10 -3 0 -8 5 -11 10 -3 6 -1 10 4 10 6 0 11 -4 11 -10z m2970 0 c24 -15 7
-18 -20 -3 -14 7 -18 13 -10 13 8 0 22 -4 30 -10z m-3170 -21 c0 -6 -4 -7 -10
-4 -5 3 -10 11 -10 16 0 6 5 7 10 4 6 -3 10 -11 10 -16z m-340 -4 c7 -9 8 -15
2 -15 -5 0 -12 7 -16 15 -3 8 -4 15 -2 15 2 0 9 -7 16 -15z m3240 -30 c-6 -8
-18 -11 -26 -8 -20 7 -18 14 4 11 10 -2 16 2 14 10 -1 8 2 11 8 7 8 -5 8 -11
0 -20z m-47 -45 c-13 -10 -23 -22 -23 -27 0 -11 -80 -86 -86 -80 -3 2 13 20
36 40 27 26 38 42 33 53 -4 11 -2 15 4 11 6 -4 18 2 28 13 10 11 21 17 24 14
3 -3 -4 -14 -16 -24z m-96 -56 c-9 -9 -28 6 -21 18 4 6 10 6 17 -1 6 -6 8 -13
4 -17z m-2452 -4 c10 -11 16 -20 13 -20 -3 0 -13 9 -23 20 -10 11 -16 20 -13
20 3 0 13 -9 23 -20z m40 -39 c3 -5 2 -12 -3 -15 -5 -3 -9 1 -9 9 0 17 3 19
12 6z m-114 -38 c13 -15 12 -15 -8 -4 -24 12 -29 21 -14 21 5 0 15 -7 22 -17z
m2469 12 c0 -2 -10 -10 -22 -16 -21 -11 -22 -11 -9 4 13 16 31 23 31 12z m-35
-64 c3 -5 2 -12 -3 -15 -5 -3 -9 1 -9 9 0 17 3 19 12 6z m-2365 -11 c-11 -7
-11 -10 -2 -10 7 0 10 -5 6 -11 -4 -7 -10 -7 -16 -1 -12 12 -2 32 15 32 7 0 6
-4 -3 -10z m2342 -25 c0 -5 -5 -10 -11 -11 -8 -2 -7 -1 0 3 8 4 7 8 -2 15 -11
8 -11 9 -1 6 8 -2 14 -8 14 -13z m-2316 -19 c0 -14 -3 -23 -7 -20 -6 3 -6 22
0 42 3 10 7 -2 7 -22z m125 7 c13 -16 12 -17 -3 -4 -10 7 -18 15 -18 17 0 8 8
3 21 -13z m2135 -9 c-4 -12 -2 -15 9 -10 21 8 19 3 -9 -23 -16 -15 -26 -19
-31 -12 -4 7 -1 10 7 9 7 -2 14 4 14 12 1 8 2 21 3 28 0 6 4 12 7 12 3 0 3 -7
0 -16z m-105 -17 c-10 -9 -11 -8 -5 6 3 10 9 15 12 12 3 -3 0 -11 -7 -18z
m-2101 -21 c-7 -7 -13 -7 -20 0 -6 6 -3 10 10 10 13 0 16 -4 10 -10z m2128 3
c-2 -6 3 -14 11 -17 10 -3 11 0 5 9 -7 12 -5 12 9 0 9 -7 17 -19 16 -25 0 -7
-2 -6 -6 2 -2 6 -9 9 -14 6 -13 -7 -41 15 -33 27 7 13 14 11 12 -2z m-2106
-31 c-9 -9 -15 -9 -24 1 -11 10 -10 11 5 6 10 -5 17 -2 17 6 0 7 3 9 7 6 4 -4
1 -13 -5 -19z m128 -2 c0 -2 -8 -10 -17 -17 -16 -13 -17 -12 -4 4 13 16 21 21
21 13z m1979 -10 c9 -10 7 -17 -6 -27 -16 -12 -17 -12 -6 2 10 12 10 18 1 27
-7 7 -9 12 -6 12 3 0 11 -6 17 -14z m-2069 -6 c0 -5 -2 -10 -4 -10 -3 0 -8 5
-11 10 -3 6 -1 10 4 10 6 0 11 -4 11 -10z m1924 -51 c-9 -10 -22 -19 -28 -19
-6 0 0 7 12 16 12 8 22 23 23 32 0 11 2 13 6 4 3 -7 -3 -22 -13 -33z m76 21
c5 8 10 11 10 6 0 -5 -8 -18 -17 -29 -17 -19 -17 -20 0 -14 22 8 22 4 -2 -17
-18 -16 -18 -16 -15 13 2 17 -1 33 -6 36 -6 3 -10 11 -10 18 0 6 7 2 15 -9 13
-16 16 -17 25 -4z m-1963 3 c-10 -3 -14 -9 -10 -16 4 -7 -1 -6 -10 2 -22 17
-22 16 11 18 15 0 19 -1 9 -4z m66 -18 c-3 -9 -8 -14 -10 -11 -3 3 -2 9 2 15
9 16 15 13 8 -4z m-29 -20 c11 -8 16 -15 10 -15 -5 0 -18 7 -28 15 -11 8 -16
15 -10 15 5 0 18 -7 28 -15z m49 0 c-3 -9 -8 -14 -10 -11 -3 3 -2 9 2 15 9 16
15 13 8 -4z m41 -10 c-7 -16 -24 -21 -24 -6 0 8 7 13 27 20 1 1 0 -6 -3 -14z
m1786 5 c0 -5 -5 -10 -11 -10 -5 0 -7 5 -4 10 3 6 8 10 11 10 2 0 4 -4 4 -10z
m-1784 -58 c-4 -3 -14 2 -24 12 -16 18 -16 18 6 6 13 -6 21 -14 18 -18z m29
10 c-3 -3 -11 0 -18 7 -9 10 -8 11 6 5 10 -3 15 -9 12 -12z m56 -29 c13 -16
12 -17 -3 -4 -10 7 -18 15 -18 17 0 8 8 3 21 -13z m-31 -9 c0 -8 -19 -13 -24
-6 -3 5 1 9 9 9 8 0 15 -2 15 -3z m25 -24 c3 -5 1 -10 -4 -10 -6 0 -11 5 -11
10 0 6 2 10 4 10 3 0 8 -4 11 -10z m1600 -9 c7 -12 -12 -24 -25 -16 -11 7 -4
25 10 25 5 0 11 -4 15 -9z m-1527 -9 c8 -6 2 -9 -18 -9 -20 0 -26 3 -18 9 7 4
15 8 18 8 3 0 11 -4 18 -8z m1407 -41 c-3 -6 2 -14 10 -19 15 -8 15 -10 1 -21
-11 -9 -16 -10 -17 -2 -1 6 -2 17 -3 24 -3 14 3 27 10 27 3 0 3 -4 -1 -9z m60
-1 c-3 -5 -11 -10 -16 -10 -6 0 -7 5 -4 10 3 6 11 10 16 10 6 0 7 -4 4 -10z
m-1365 -34 c0 -11 -19 -15 -25 -6 -3 5 1 10 9 10 9 0 16 -2 16 -4z m29 -19 c8
-10 7 -14 -2 -14 -8 0 -14 6 -14 14 0 7 1 13 2 13 2 0 8 -6 14 -13z m1245 -6
c13 7 9 1 -9 -15 -16 -14 -34 -25 -40 -25 -6 -1 -5 3 1 7 6 4 10 15 8 26 -2
13 0 16 8 8 8 -8 17 -8 32 -1z m-124 -85 c0 -2 -7 -7 -16 -10 -8 -3 -12 -2 -9
4 6 10 25 14 25 6z m12077 -345 c79 -71 296 -220 478 -328 206 -123 415 -237
421 -230 3 3 20 105 38 226 17 121 34 222 37 226 3 3 9 -57 13 -132 9 -193 20
-310 28 -318 10 -10 131 20 268 67 301 102 576 274 736 460 30 35 59 64 63 66
5 1 14 -10 20 -25 22 -53 39 -65 100 -77 l59 -11 -25 -60 c-124 -296 -299
-666 -421 -885 -143 -259 -241 -391 -427 -575 -167 -166 -214 -209 -219 -204
-2 2 -41 156 -85 341 l-82 336 57 114 56 113 -59 145 -59 145 -67 3 c-62 3
-68 1 -76 -20 -5 -13 -34 -78 -66 -146 l-57 -123 38 -72 c20 -40 48 -89 61
-109 l23 -37 -30 -268 c-16 -147 -32 -288 -36 -313 l-6 -45 -20 25 c-11 14
-57 63 -101 110 -68 70 -175 194 -247 284 -8 10 -26 33 -40 50 -14 17 -39 49
-55 71 -16 22 -33 45 -37 50 -63 79 -296 422 -360 531 -20 33 -75 124 -123
204 -147 243 -177 298 -170 310 3 6 28 10 55 10 52 0 64 7 50 30 -6 9 0 28 15
54 12 23 42 74 65 114 l42 74 43 -65 c24 -35 70 -87 102 -116z m-12982 -126
c-16 -118 -16 -137 -5 -150 7 -8 16 -12 21 -9 5 3 6 -1 3 -9 -3 -8 1 -21 8
-28 8 -8 24 -29 37 -47 12 -18 27 -30 32 -26 5 3 8 0 7 -8 -2 -7 3 -12 10 -10
8 1 11 -2 7 -8 -8 -14 123 -143 137 -134 6 4 8 3 5 -4 -4 -5 8 -22 25 -37 18
-14 41 -33 50 -40 24 -20 104 -25 100 -7 -1 8 2 11 8 7 6 -3 8 -10 5 -15 -8
-13 18 -6 44 12 23 16 24 19 8 36 -16 17 -15 18 8 18 19 0 22 -3 13 -13 -14
-17 2 -16 24 1 10 7 15 16 11 19 -3 4 1 7 10 7 16 0 22 12 18 34 -3 14 31 46
42 39 6 -3 1 -10 -11 -14 -21 -8 -31 -29 -14 -29 18 0 83 70 76 81 -4 8 -3 9
4 5 18 -11 14 5 -5 28 l-18 21 23 -19 23 -20 24 30 c13 16 30 36 38 44 28 32
48 71 41 82 -4 6 -3 8 4 4 6 -3 18 1 27 11 19 18 18 28 -15 150 -12 46 -20 92
-18 103 3 20 7 19 63 -16 52 -31 212 -120 455 -252 36 -19 110 -60 165 -89 55
-30 104 -58 108 -63 5 -4 -53 -122 -129 -261 -75 -140 -209 -396 -297 -569
-88 -173 -183 -353 -210 -400 -75 -126 -277 -442 -298 -466 -11 -11 -19 -24
-19 -27 0 -4 -33 -55 -72 -114 -40 -58 -83 -122 -95 -142 -13 -20 -27 -43 -32
-51 -5 -8 -11 -13 -14 -10 -20 24 -106 160 -100 160 4 0 0 6 -9 13 -12 9 -424
630 -517 778 -9 14 -34 52 -55 85 -123 185 -159 240 -166 244 -20 14 -340 683
-340 711 0 11 6 19 13 19 15 0 154 54 164 64 4 4 6 22 5 39 -3 28 2 35 30 50
18 9 60 32 93 50 33 18 92 51 130 72 177 97 231 129 238 142 5 8 23 23 40 34
l32 19 8 -38 c5 -20 5 -59 2 -87z m70 45 c3 -6 -1 -7 -9 -4 -18 7 -21 14 -7
14 6 0 13 -4 16 -10z m92 -46 c-3 -3 -12 -4 -19 -1 -8 3 -5 6 6 6 11 1 17 -2
13 -5z m63 -14 c-8 -5 -19 -10 -25 -10 -5 0 -3 5 5 10 8 5 20 10 25 10 6 0 3
-5 -5 -10z m140 -50 c6 -11 8 -20 6 -20 -3 0 -10 9 -16 20 -6 11 -8 20 -6 20
3 0 10 -9 16 -20z m61 -17 c13 -17 13 -17 -6 -3 -11 8 -22 16 -24 17 -2 2 0 3
6 3 6 0 17 -8 24 -17z m-21 -13 c0 -5 -5 -10 -11 -10 -5 0 -7 5 -4 10 3 6 8
10 11 10 2 0 4 -4 4 -10z m85 1 c3 -5 0 -13 -6 -17 -7 -4 -9 -3 -5 4 3 5 0 13
-6 15 -9 4 -10 6 -1 6 6 1 14 -3 18 -8z m16 -24 c-10 -9 -11 -8 -5 6 3 10 9
15 12 12 3 -3 0 -11 -7 -18z m-61 3 c0 -5 -2 -10 -4 -10 -3 0 -8 5 -11 10 -3
6 -1 10 4 10 6 0 11 -4 11 -10z m230 -30 c0 -5 -5 -10 -11 -10 -5 0 -7 5 -4
10 3 6 8 10 11 10 2 0 4 -4 4 -10z m40 -10 c0 -5 -4 -10 -10 -10 -5 0 -10 5
-10 10 0 6 5 10 10 10 6 0 10 -4 10 -10z m49 -41 c-16 -10 -23 -4 -14 10 3 6
11 8 17 5 6 -4 5 -9 -3 -15z m-673 -21 c4 -7 3 -8 -4 -4 -16 10 -15 -6 1 -24
6 -8 2 -6 -11 5 -17 14 -19 21 -10 27 16 10 16 10 24 -4z m681 -1 c0 -8 -6
-14 -14 -14 -9 0 -10 4 -2 14 6 7 12 13 14 13 1 0 2 -6 2 -13z m-602 -108 c11
-17 -1 -21 -15 -4 -8 9 -8 15 -2 15 6 0 14 -5 17 -11z m39 -58 c-2 -3 -12 3
-22 13 -16 17 -16 18 5 5 12 -7 20 -15 17 -18z m51 -11 c0 -7 -7 -15 -15 -17
-13 -4 -13 -3 0 6 13 10 13 12 0 22 -13 9 -13 10 0 6 8 -2 15 -10 15 -17z m75
-65 c11 -13 10 -14 -6 -8 -17 6 -18 5 -4 -12 14 -18 14 -18 -11 0 -18 13 -23
22 -15 27 16 11 22 10 36 -7z m110 5 c0 -5 -5 -10 -11 -10 -5 0 -7 5 -4 10 3
6 8 10 11 10 2 0 4 -4 4 -10z m20 -25 c-7 -8 -16 -15 -21 -15 -5 0 -1 8 9 18
20 22 31 19 12 -3z m30 -9 c0 -2 -8 -10 -17 -17 -16 -13 -17 -12 -4 4 13 16
21 21 21 13z m26212 -1865 c73 -11 160 -22 193 -26 33 -3 71 -8 85 -10 40 -6
172 -24 215 -29 22 -2 78 -10 125 -16 47 -6 99 -12 115 -14 77 -10 212 -27
235 -31 14 -2 120 -15 235 -29 116 -14 262 -33 325 -41 119 -16 835 -109 1115
-145 88 -11 169 -22 180 -24 11 -2 47 -7 80 -10 74 -8 97 -15 90 -26 -3 -4
-61 -198 -129 -431 -68 -233 -216 -737 -329 -1119 -222 -757 -296 -1013 -362
-1250 -24 -85 -46 -163 -50 -172 -7 -17 5 -18 159 -18 110 0 166 4 166 11 0 5
5 7 10 4 14 -9 13 -26 -2 -22 -6 1 -13 -6 -14 -16 -1 -10 0 -11 3 -3 3 9 14
13 31 11 15 -2 21 -2 15 1 -7 3 -13 9 -13 14 0 13 29 20 36 8 5 -7 2 -8 -6 -3
-8 5 -11 3 -8 -6 3 -8 -4 -31 -15 -52 -15 -29 -22 -35 -29 -25 -6 9 -7 6 -3
-10 4 -15 1 -24 -9 -28 -9 -3 -16 -12 -16 -19 0 -17 -35 -47 -45 -38 -4 5 -5
3 -2 -3 4 -7 1 -16 -6 -22 -9 -7 -483 -12 -1510 -14 -823 -2 -1497 -1 -1497 0
0 2 16 98 35 214 20 116 33 220 30 232 -5 18 -5 19 5 4 10 -16 45 -29 115 -43
145 -28 205 -36 302 -40 61 -3 119 -8 128 -11 25 -10 502 10 535 22 8 3 44 8
80 10 36 3 81 9 100 14 19 6 49 10 67 10 17 0 34 4 38 9 3 5 18 9 33 9 37 -1
138 29 155 47 8 8 17 11 20 8 4 -3 23 2 42 12 20 9 55 25 77 35 l41 18 -38 0
c-26 0 -33 -3 -24 -9 10 -6 3 -9 -21 -9 -28 0 -32 -3 -20 -11 11 -8 7 -9 -19
-5 -18 3 -55 6 -82 6 -37 0 -49 4 -49 15 0 12 -16 15 -80 15 -79 0 -80 0 -80
25 0 25 -1 25 -81 25 -76 0 -81 1 -76 20 4 14 0 20 -12 20 -9 0 -23 6 -30 13
-11 10 -13 9 -8 -4 4 -13 -5 -16 -53 -18 l-57 -2 3 28 3 28 -84 -3 c-72 -3
-85 -1 -85 12 0 13 -14 16 -80 16 -79 0 -80 0 -80 25 0 23 -4 25 -40 25 -29 0
-40 4 -40 15 0 12 -16 15 -80 15 -79 0 -80 0 -80 25 0 25 -1 25 -80 25 -64 0
-80 3 -80 15 0 12 -16 15 -80 15 -79 0 -80 0 -80 25 0 25 -1 25 -80 25 -64 0
-80 3 -80 15 0 12 -16 15 -80 15 -79 0 -80 0 -80 25 0 23 -4 25 -40 25 -29 0
-40 4 -40 15 0 12 -16 15 -80 15 -79 0 -80 0 -80 25 0 25 -1 25 -80 25 -64 0
-80 3 -80 15 0 12 -16 15 -80 15 -79 0 -80 0 -80 25 0 24 -3 25 -60 25 -38 0
-60 -4 -60 -11 0 -6 9 -9 20 -6 11 3 20 1 20 -4 0 -5 -9 -9 -19 -9 -11 0 -23
-4 -26 -10 -8 -13 -25 -13 -25 -1 0 5 8 12 18 14 9 3 3 4 -15 4 -18 -1 -31 3
-30 8 1 6 12 9 24 7 12 -1 24 2 28 8 4 6 -1 7 -12 4 -10 -4 -1 11 22 34 22 23
45 41 51 42 6 0 19 9 29 20 10 11 22 17 27 14 4 -3 7 0 6 7 -2 6 3 14 11 17 9
3 11 0 6 -8 -5 -8 -4 -11 3 -6 6 4 8 14 5 22 -5 13 -1 15 18 9 15 -4 19 -3 11
2 -16 12 41 69 59 58 7 -5 10 -4 6 2 -6 10 42 63 60 66 4 1 7 5 6 8 -1 4 7 15
17 24 11 10 20 16 20 13 0 -3 21 14 46 37 25 24 53 49 63 57 9 7 36 29 61 49
92 74 152 98 326 134 29 6 31 4 58 -57 16 -35 41 -92 57 -127 16 -35 28 -65
27 -66 -2 -1 -50 -18 -107 -37 l-105 -35 139 -7 c146 -8 154 -6 155 38 0 11
16 91 35 178 20 87 34 162 32 166 -3 4 1 66 9 137 8 72 16 162 19 200 3 39 12
165 20 280 8 116 24 356 35 535 11 179 23 368 26 420 7 90 11 158 13 208 1 28
17 28 193 3z m-8187 -754 c77 -36 181 -84 230 -107 50 -23 118 -55 153 -71 34
-15 62 -31 62 -35 0 -4 -9 -38 -21 -76 -11 -39 -18 -72 -15 -76 3 -3 -1 -13
-10 -23 -9 -10 -17 -29 -18 -43 0 -14 -5 -26 -9 -26 -5 0 -5 -9 -2 -20 4 -12
2 -20 -5 -20 -7 0 -9 -8 -5 -21 5 -15 4 -19 -4 -15 -11 7 -16 -17 -13 -59 2
-16 0 -17 -8 -5 -6 10 -10 11 -10 3 0 -7 0 -15 0 -18 0 -3 -9 -25 -20 -50 -11
-25 -17 -52 -14 -60 4 -8 1 -15 -6 -15 -7 0 -9 -8 -5 -21 5 -15 4 -19 -4 -15
-6 4 -11 1 -11 -7 0 -8 -7 -27 -14 -43 -8 -15 -13 -31 -10 -36 3 -4 -1 -8 -8
-8 -9 -1 -7 -5 5 -14 19 -15 24 -31 5 -20 -7 5 -19 9 -28 10 -12 1 -405 181
-712 326 l-67 31 71 136 c39 75 111 215 161 311 49 96 94 181 100 188 8 10 19
7 51 -12 22 -13 104 -53 181 -89z m452 -359 c-3 -7 -5 -2 -5 12 0 14 2 19 5
13 2 -7 2 -19 0 -25z m-7797 -228 c0 -5 -5 -10 -11 -10 -5 0 -7 5 -4 10 3 6 8
10 11 10 2 0 4 -4 4 -10z m7871 -87 c-12 -20 -14 -14 -5 12 4 9 9 14 11 11 3
-2 0 -13 -6 -23z m-7915 -252 c0 -11 -4 -17 -8 -15 -4 3 -8 12 -8 20 0 8 4 14
8 14 4 0 8 -9 8 -19z m-85 -14 c-10 -9 -11 -8 -5 6 3 10 9 15 12 12 3 -3 0
-11 -7 -18z m1 -54 c-12 -21 -43 -27 -35 -6 4 10 8 11 13 3 5 -8 9 -7 13 4 4
9 9 16 12 16 3 0 2 -8 -3 -17z m32 -11 c3 -5 -1 -9 -9 -9 -8 0 -15 4 -15 9 0
4 4 8 9 8 6 0 12 -4 15 -8z m16 -59 c-11 -17 -11 -17 -6 0 3 10 6 24 7 30 0 9
2 9 5 0 3 -7 0 -20 -6 -30z m6861 -137 c145 -68 300 -140 344 -161 44 -21 112
-52 150 -70 72 -32 112 -64 79 -61 -11 0 -20 -9 -24 -25 -4 -15 -26 -64 -49
-110 -23 -45 -39 -89 -36 -96 2 -8 1 -12 -4 -9 -7 5 -57 -73 -54 -84 1 -3 -7
-15 -19 -27 -11 -12 -17 -26 -13 -33 3 -6 3 -9 -2 -8 -5 2 -23 -13 -41 -33
-19 -21 -45 -39 -64 -43 -45 -10 -141 -11 -155 -3 -6 4 -14 1 -17 -5 -5 -10
-7 -10 -12 0 -3 6 -10 12 -15 12 -6 0 -7 -5 -3 -12 5 -7 3 -8 -6 -3 -7 4 -27
9 -44 11 -29 3 -29 2 -8 -8 17 -9 22 -20 22 -50 0 -34 -3 -38 -25 -38 -18 0
-23 -4 -19 -15 8 -21 -13 -19 -25 3 -10 16 -10 16 -11 -1 0 -11 9 -21 20 -24
22 -6 26 -19 8 -25 -6 -2 -8 -10 -4 -17 5 -7 15 -10 25 -6 11 4 13 3 5 -5 -15
-15 -41 -2 -48 25 -6 25 -32 40 -41 25 -4 -6 0 -10 8 -10 8 0 17 -7 21 -15 7
-19 -8 -19 -24 0 -7 8 -17 12 -23 8 -6 -4 -7 -1 -2 7 5 9 2 10 -13 6 -14 -5
-27 0 -43 16 -12 13 -19 17 -15 10 5 -8 -11 -5 -44 8 -28 11 -53 20 -56 20 -3
0 -3 3 -1 8 3 4 -6 8 -20 9 -14 0 -29 6 -33 13 -4 6 -10 11 -14 11 -24 -3 -30
0 -16 10 12 9 12 10 -3 5 -11 -3 -39 3 -64 14 -25 11 -50 20 -56 20 -5 0 -37
12 -71 26 -33 14 -78 33 -98 41 l-37 16 25 49 c14 27 29 46 34 43 5 -3 7 0 4
8 -5 15 342 697 355 697 4 0 127 -56 272 -124z m-7015 86 c-17 -16 -18 -16 -5
5 7 12 15 20 18 17 3 -2 -3 -12 -13 -22z m161 -54 c-3 -7 -5 -2 -5 12 0 14 2
19 5 13 2 -7 2 -19 0 -25z m-227 -48 c-6 -11 -13 -20 -16 -20 -2 0 0 9 6 20 6
11 13 20 16 20 2 0 0 -9 -6 -20z m30 0 c0 -5 -5 -10 -11 -10 -5 0 -7 5 -4 10
3 6 8 10 11 10 2 0 4 -4 4 -10z m183 -42 c-10 -18 -20 -6 -15 19 5 24 6 25 12
8 4 -11 6 -23 3 -27z m-203 18 c0 -2 -8 -10 -17 -17 -16 -13 -17 -12 -4 4 13
16 21 21 21 13z m0 -45 c0 -6 -4 -13 -10 -16 -5 -3 -10 1 -10 9 0 9 5 16 10
16 6 0 10 -4 10 -9z m200 -1 c0 -5 -5 -10 -11 -10 -5 0 -7 5 -4 10 3 6 8 10
11 10 2 0 4 -4 4 -10z m-183 -22 c-3 -8 -6 -5 -6 6 -1 11 2 17 5 13 3 -3 4
-12 1 -19z m7908 -27 c3 -5 2 -12 -3 -15 -5 -3 -9 1 -9 9 0 17 3 19 12 6z
m-7927 -58 c-16 -15 -17 -15 -11 5 3 12 -1 30 -8 40 -7 9 -2 7 11 -5 23 -21
23 -24 8 -40z m18 -32 c0 -10 -8 -24 -18 -30 -11 -7 -18 -7 -18 -1 0 5 5 10
11 10 5 0 7 5 3 11 -5 9 5 22 21 29 1 0 1 -9 1 -19z m109 0 c3 -5 1 -12 -5
-16 -5 -3 -10 1 -10 9 0 18 6 21 15 7z m46 -44 c-6 -8 -9 -23 -5 -33 5 -16 4
-16 -5 -4 -9 12 -11 11 -12 -10 -2 -24 -2 -30 5 -75 2 -11 -3 -27 -10 -35 -18
-21 -31 -106 -15 -96 16 10 4 -40 -18 -74 -15 -22 -15 -24 0 -18 13 5 16 2 11
-14 -4 -15 -7 -17 -13 -6 -12 19 -11 0 1 -23 6 -11 8 -25 3 -32 -4 -6 -8 -32
-8 -57 -2 -65 -4 -72 -15 -65 -5 3 -10 -1 -10 -10 0 -9 4 -14 9 -11 5 4 11 2
13 -4 2 -6 65 -6 178 0 508 26 960 20 1158 -14 52 -9 100 -25 134 -45 138 -79
387 -401 508 -659 46 -96 50 -92 -98 -92 -150 0 -140 -5 -217 124 -46 80 -105
156 -159 208 -22 21 -32 25 -38 16 -6 -10 -8 -8 -8 4 0 9 -16 30 -36 45 -20
15 -51 40 -69 56 -43 36 -56 35 -17 -2 16 -16 28 -32 24 -35 -3 -3 4 -6 16 -6
11 0 24 -4 27 -10 4 -6 -1 -7 -11 -3 -11 4 -6 -8 15 -37 17 -24 31 -49 31 -56
0 -7 9 -28 19 -46 23 -38 71 -198 71 -234 l0 -24 -302 2 -303 3 -40 72 c-22
40 -45 71 -51 68 -7 -2 -10 4 -8 13 2 9 -13 49 -34 87 l-37 70 -68 3 c-50 3
-67 0 -67 -10 0 -7 12 -47 25 -88 14 -41 25 -83 25 -95 0 -12 3 -16 8 -8 4 6
7 -18 8 -53 l0 -64 -122 0 -123 0 -23 31 c-45 60 -58 63 -343 71 -427 11 -489
33 -718 258 l-109 106 59 75 c67 83 129 141 212 196 l56 37 175 13 c96 6 186
12 200 13 14 1 19 4 12 7 -6 2 -10 8 -8 12 3 4 -5 7 -17 7 -24 -1 -23 -2 -31
119 -3 41 0 75 6 82 7 9 7 13 -1 13 -8 0 -12 20 -12 58 -1 112 -6 192 -12 199
-4 3 -7 13 -7 22 1 13 3 13 15 -2 9 -13 12 -35 8 -71 -3 -29 -2 -56 3 -59 5
-3 9 25 8 62 l-1 67 46 -6 c44 -5 46 -6 49 -40 4 -45 17 -58 31 -31 9 15 9 26
1 39 -10 15 -10 15 -6 -3 3 -11 1 -27 -4 -35 -6 -10 -9 -4 -8 20 1 52 42 150
56 135 3 -2 0 -11 -7 -18z m-155 -13 c-3 -9 -6 -21 -6 -27 0 -7 -5 -4 -11 6
-11 18 -5 37 13 37 5 0 7 -7 4 -16z m104 -44 c0 -5 -4 -10 -10 -10 -5 0 -10 5
-10 10 0 6 5 10 10 10 6 0 10 -4 10 -10z m20 -157 c-11 -17 -11 -17 -6 0 3 10
6 24 7 30 0 9 2 9 5 0 3 -7 0 -20 -6 -30z m14155 -43 c3 -5 1 -10 -4 -10 -6 0
-11 5 -11 10 0 6 2 10 4 10 3 0 8 -4 11 -10z m-39 -34 c0 -17 -4 -22 -15 -18
-14 5 -14 4 -1 -14 11 -15 11 -16 0 -6 -8 6 -20 12 -28 12 -12 0 -12 -3 -1
-17 13 -16 12 -17 -3 -5 -20 16 -13 43 9 35 11 -4 14 -2 9 5 -5 8 -2 10 9 6 9
-4 15 -3 14 2 -2 12 0 24 4 24 2 0 3 -11 3 -24z m-27011 -56 c-3 -5 0 -11 5
-13 6 -3 5 -4 -2 -3 -7 2 -13 7 -13 12 0 5 -4 16 -10 24 -8 13 -7 13 8 1 9 -7
15 -17 12 -21z m26945 6 c0 -2 -7 -7 -16 -10 -8 -3 -12 -2 -9 4 6 10 25 14 25
6z m-69 -123 c-12 -20 -14 -14 -5 12 4 9 9 14 11 11 3 -2 0 -13 -6 -23z
m-6701 7 c0 -5 -5 -10 -11 -10 -5 0 -7 5 -4 10 3 6 8 10 11 10 2 0 4 -4 4 -10z
m-1775 -100 c160 -6 400 -17 535 -25 135 -8 255 -15 266 -15 13 0 24 -8 26
-18 4 -12 31 -27 79 -45 64 -23 100 -28 270 -37 108 -6 238 -11 290 -11 52 0
137 -3 189 -6 52 -3 129 -7 170 -9 86 -4 239 -20 244 -25 2 -2 22 -62 45 -134
23 -71 49 -151 57 -177 9 -26 12 -53 8 -59 -4 -7 -3 -9 2 -6 13 7 78 -199 68
-214 -4 -7 -3 -9 3 -6 11 7 28 -22 18 -31 -3 -3 -5 1 -5 9 0 11 -2 11 -8 2 -6
-10 -446 -13 -2070 -15 -1134 -2 -2062 -2 -2062 -2 0 1 58 127 128 280 71 154
155 337 187 408 l59 128 168 -6 c93 -3 212 -9 266 -12 61 -4 131 -2 187 6 196
28 467 34 880 20z m-18345 -65 c0 -5 -5 -3 -10 5 -5 8 -10 20 -10 25 0 6 5 3
10 -5 5 -8 10 -19 10 -25z m19845 -65 c3 -6 -1 -7 -9 -4 -18 7 -21 14 -7 14 6
0 13 -4 16 -10z m-17715 -150 c445 -198 702 -289 855 -305 43 -4 81 0 133 13
l73 19 129 -131 129 -131 -591 -3 -591 -2 -41 40 c-22 22 -46 38 -54 35 -7 -3
-10 0 -6 6 9 14 -57 81 -74 74 -8 -3 -10 0 -6 6 4 6 2 14 -4 18 -5 3 -42 35
-82 71 -40 36 -78 64 -84 62 -6 -2 -8 0 -4 3 4 4 -15 26 -43 48 l-50 40 -33
-32 c-18 -17 -46 -60 -62 -94 -16 -34 -40 -73 -54 -86 -15 -14 -20 -25 -14
-28 7 -2 10 -12 7 -23 -3 -11 -11 -16 -20 -13 -12 5 -12 7 -2 14 8 4 10 12 5
16 -4 4 -14 0 -21 -10 -7 -10 -16 -18 -19 -17 -4 1 -44 -10 -90 -25 -58 -19
-89 -24 -100 -18 -11 6 -37 4 -74 -5 -75 -19 -118 -5 -108 33 l7 26 -41 -21
c-47 -24 -136 -43 -162 -34 -10 3 -18 13 -18 23 0 18 82 134 113 160 26 21 21
29 -23 36 -47 8 -103 44 -108 68 -3 13 10 23 44 39 42 18 60 20 147 15 88 -6
102 -4 125 13 15 11 60 25 102 31 44 7 83 19 95 30 32 29 75 41 157 43 64 2
82 7 110 28 59 45 92 58 128 54 19 -2 118 -41 220 -86z m-1918 -54 c7 4 8 2 4
-5 -10 -15 -26 -4 -25 17 1 15 2 15 6 -1 2 -9 9 -14 15 -11z m29348 14 c0 -5
-4 -10 -10 -10 -5 0 -10 5 -10 10 0 6 5 10 10 10 6 0 10 -4 10 -10z m-150 -40
c0 -5 -7 -7 -15 -4 -8 4 -15 8 -15 10 0 2 7 4 15 4 8 0 15 -4 15 -10z m-29210
-50 c0 -5 -5 -10 -11 -10 -5 0 -7 5 -4 10 3 6 8 10 11 10 2 0 4 -4 4 -10z
m-23 -82 c-3 -8 -6 -5 -6 6 -1 11 2 17 5 13 3 -3 4 -12 1 -19z m1690 -14 c-3
-3 -12 -4 -19 -1 -8 3 -5 6 6 6 11 1 17 -2 13 -5z m30163 -38 c0 -2 -7 -7 -16
-10 -8 -3 -12 -2 -9 4 6 10 25 14 25 6z m-1320 -26 c0 -11 -4 -20 -9 -20 -5 0
-7 9 -4 20 3 11 7 20 9 20 2 0 4 -9 4 -20z m650 -40 c53 0 80 -4 83 -12 3 -7
6 -2 7 12 1 14 4 19 7 13 2 -7 9 -13 14 -13 6 0 7 5 4 10 -3 6 -1 10 4 10 14
0 14 -27 1 -35 -5 -3 -10 -11 -10 -17 0 -6 10 -2 23 9 12 11 33 24 47 27 20 5
18 3 -7 -11 -22 -11 -42 -35 -60 -72 -15 -31 -31 -58 -36 -59 -4 -2 -5 -7 -2
-12 3 -5 1 -20 -5 -34 -9 -26 -10 -26 -120 -26 l-111 0 7 38 c3 20 13 55 20
77 8 22 14 48 14 58 0 15 11 22 33 18 4 0 7 4 7 9 0 6 -8 10 -17 11 -11 0 -13
3 -5 6 6 2 13 12 13 21 1 10 4 8 6 -5 4 -22 9 -23 83 -23z m385 30 c3 -5 2
-10 -4 -10 -5 0 -13 5 -16 10 -3 6 -2 10 4 10 5 0 13 -4 16 -10z m-31645 -56
c0 -4 -9 1 -20 11 -11 10 -20 23 -20 28 0 6 9 1 20 -11 11 -12 20 -24 20 -28z
m13377 4 c-3 -8 -6 -5 -6 6 -1 11 2 17 5 13 3 -3 4 -12 1 -19z m-13436 -21
c-10 -9 -11 -8 -5 6 3 10 9 15 12 12 3 -3 0 -11 -7 -18z m237 -27 c259 -1 402
-14 457 -40 35 -17 115 -84 115 -96 0 -2 -301 -4 -670 -4 -432 0 -670 3 -670
10 0 17 101 61 195 85 73 19 221 40 333 47 6 1 12 6 13 12 0 7 2 7 5 -1 4 -8
66 -12 222 -13z m1485 3 c-7 -2 -19 -2 -25 0 -7 3 -2 5 12 5 14 0 19 -2 13 -5z
m362 -33 c3 -5 1 -10 -4 -10 -6 0 -11 5 -11 10 0 6 2 10 4 10 3 0 8 -4 11 -10z
m-95 -69 c0 -5 -9 -7 -20 -4 -11 3 -20 7 -20 9 0 2 9 4 20 4 11 0 20 -4 20 -9z
m67 -7 c13 -2 21 1 18 6 -3 4 5 5 17 2 19 -5 20 -7 6 -10 -10 -2 -18 -8 -18
-13 0 -6 -10 -4 -22 2 -13 7 -24 12 -25 11 -9 -6 -23 0 -23 9 0 5 5 7 12 3 7
-4 23 -9 35 -10z"/>
<path d="M26689 28043 c14 -28 17 -28 25 -6 4 10 4 14 0 10 -4 -4 -14 -1 -22
6 -13 10 -14 9 -3 -10z"/>
<path d="M27196 27402 c-3 -5 -22 -13 -41 -16 -26 -5 -35 -12 -33 -24 2 -10
-3 -16 -10 -14 -7 1 -25 -12 -39 -29 -15 -17 -33 -37 -40 -45 -22 -21 -84
-159 -86 -190 -1 -16 -5 -32 -10 -35 -8 -6 -37 -100 -42 -139 -2 -14 -4 -25
-5 -25 -2 0 -4 -9 -6 -20 -2 -11 -8 -42 -13 -70 -21 -111 -12 -113 33 -8 42
99 92 193 102 193 2 0 2 -12 -1 -27 -6 -25 -5 -26 6 -8 42 71 104 88 149 40
52 -55 15 -145 -59 -145 -41 0 -51 5 -74 40 -16 23 -17 23 -17 4 0 -40 31
-112 66 -153 20 -22 32 -41 27 -42 -4 -1 -29 -1 -55 -1 -27 0 -48 -4 -48 -10
0 -5 -24 -7 -57 -4 -56 4 -57 4 -23 -8 19 -7 41 -11 48 -8 6 2 12 0 12 -6 0
-8 62 -24 154 -39 16 -3 40 -9 53 -14 13 -5 58 -9 99 -9 62 0 88 6 161 36 49
20 93 40 98 44 6 4 31 15 56 24 25 10 77 33 115 51 68 33 69 34 41 44 -15 6
-47 13 -70 16 -23 3 -55 8 -71 11 -20 4 -26 3 -21 -6 5 -8 0 -7 -15 2 -20 12
-21 18 -16 76 5 50 4 62 -6 56 -10 -6 -10 -4 1 9 16 21 8 109 -20 217 -42 157
-121 229 -265 238 -42 3 -74 0 -78 -6z m-26 -72 c-8 -5 -19 -10 -25 -10 -5 0
-3 5 5 10 8 5 20 10 25 10 6 0 3 -5 -5 -10z m137 -27 c-14 -14 -19 -15 -29 -4
-11 10 -10 11 3 6 10 -4 20 -2 24 4 3 6 9 11 13 11 3 0 -1 -8 -11 -17z m-62
-3 c3 -5 2 -10 -4 -10 -5 0 -13 5 -16 10 -3 6 -2 10 4 10 5 0 13 -4 16 -10z
m-57 -5 c-2 -1 -12 -7 -24 -13 -16 -8 -21 -8 -21 2 0 8 11 14 24 14 13 0 23
-2 21 -3z m-83 -34 c6 -1 4 -5 -4 -10 -8 -5 -21 -7 -29 -3 -9 3 -13 1 -9 -5 4
-6 1 -16 -7 -22 -10 -9 -12 -5 -10 17 2 32 -1 29 27 26 12 -1 27 -3 32 -3z
m331 -3 c5 4 6 3 2 -1 -10 -13 25 -44 42 -38 12 4 12 3 1 -10 -12 -12 -18 -10
-47 19 -34 34 -47 55 -21 33 8 -6 18 -7 23 -3z m83 -88 c0 -10 -3 -8 -9 5 -12
27 -12 43 0 25 5 -8 9 -22 9 -30z m-489 6 c0 -2 -7 -9 -15 -16 -13 -11 -14
-10 -9 4 5 14 24 23 24 12z m-47 -73 c-3 -7 -6 -13 -8 -13 -2 0 -5 6 -8 13 -3
8 1 14 8 14 7 0 11 -6 8 -14z m523 -178 c24 -50 44 -96 44 -102 0 -10 -49 -36
-142 -76 -21 -9 -38 -13 -38 -8 0 5 11 33 25 64 30 64 41 163 27 227 l-11 45
25 -30 c14 -16 45 -71 70 -120z m52 50 c-3 -3 -9 2 -12 12 -6 14 -5 15 5 6 7
-7 10 -15 7 -18z m-87 -229 c-18 -10 -20 -15 -10 -19 8 -3 3 -4 -11 -3 -14 2
-30 0 -36 -5 -7 -5 -11 -3 -11 6 0 8 5 15 11 16 23 1 48 8 54 13 3 3 10 6 16
6 6 -1 0 -7 -13 -14z m-396 -84 c-16 -2 -33 -9 -37 -15 -6 -9 -8 -9 -8 0 0 18
30 31 54 24 18 -5 17 -6 -9 -9z m122 12 c-3 -3 -12 -4 -19 -1 -8 3 -5 6 6 6
11 1 17 -2 13 -5z m30 -60 c-3 -3 -12 -4 -19 -1 -8 3 -5 6 6 6 11 1 17 -2 13
-5z"/>
<path d="M25560 27391 c-74 -18 -140 -74 -174 -148 -32 -66 -43 -194 -27 -293
6 -36 12 -70 13 -77 1 -7 5 -10 10 -7 5 3 6 -5 3 -18 -3 -12 -1 -36 4 -53 l8
-30 6 35 c3 19 10 73 16 119 19 147 87 256 177 281 47 14 72 6 39 -12 -111
-63 -156 -288 -86 -427 12 -22 21 -42 21 -44 0 -5 -31 -1 -50 6 -41 15 -115
25 -126 16 -8 -7 -13 -6 -16 3 -3 9 -13 8 -40 -5 -20 -9 -39 -17 -42 -17 -3 0
-14 -8 -25 -19 -18 -18 -17 -18 13 -29 33 -11 164 -43 241 -58 11 -2 33 -6 49
-10 19 -4 26 -3 22 5 -5 7 -1 9 8 5 9 -3 13 -11 10 -16 -6 -10 44 -7 111 6 17
3 47 8 67 11 41 5 174 58 198 79 8 7 21 11 28 9 6 -3 12 0 12 6 0 6 9 11 20
11 11 0 20 5 20 11 0 5 -4 8 -9 4 -11 -6 -54 -13 -134 -20 l-59 -5 21 33 c31
51 54 153 48 215 -5 47 -4 52 9 41 12 -10 95 -130 161 -235 14 -21 12 -14 -13
66 -23 76 -104 253 -120 263 -7 4 -15 21 -19 37 -4 17 -11 28 -16 25 -5 -4 -6
0 -3 8 3 8 -3 20 -12 28 -15 12 -17 12 -9 0 5 -9 4 -12 -3 -7 -6 4 -9 12 -6
19 2 7 -12 30 -32 52 -20 22 -31 32 -24 23 7 -10 9 -18 4 -18 -5 -1 5 -12 21
-26 18 -16 22 -22 9 -15 -25 12 -47 38 -50 58 -12 76 -167 141 -274 114z m-15
-51 c-3 -6 0 -13 9 -16 8 -3 12 -12 9 -20 -3 -8 -9 -11 -14 -8 -5 3 -7 9 -4
14 3 5 1 11 -5 15 -10 6 -5 25 6 25 3 0 2 -5 -1 -10z m116 -8 c-7 -2 -18 1
-23 6 -8 8 -4 9 13 5 13 -4 18 -8 10 -11z m139 -32 c8 -5 12 -11 9 -14 -3 -3
-14 1 -25 9 -21 16 -8 20 16 5z m-265 -9 c3 -5 2 -12 -3 -15 -5 -3 -9 1 -9 9
0 17 3 19 12 6z m-43 -42 c-9 -9 -19 -12 -20 -7 -2 5 -11 3 -20 -4 -15 -11
-15 -10 0 8 10 11 26 20 37 20 19 0 19 -1 3 -17z m-67 -98 c3 -5 1 -12 -5 -16
-5 -3 -10 1 -10 9 0 18 6 21 15 7z m-42 -46 c-3 -9 -8 -14 -10 -11 -3 3 -2 9
2 15 9 16 15 13 8 -4z m516 -102 c18 -21 22 -34 18 -65 -7 -50 -21 -66 -64
-74 -47 -9 -81 9 -98 51 -17 38 -9 69 21 96 42 36 86 33 123 -8z m-474 -277
c7 3 15 2 18 -3 3 -4 -7 -8 -23 -8 -21 -1 -26 3 -22 14 4 9 7 11 9 4 3 -7 10
-10 18 -7z m335 -36 c0 -5 -7 -10 -16 -10 -8 0 -12 5 -9 10 3 6 10 10 16 10 5
0 9 -4 9 -10z m57 4 c-3 -3 -12 -4 -19 -1 -8 3 -5 6 6 6 11 1 17 -2 13 -5z
m107 -10 c3 -8 2 -12 -4 -9 -6 3 -10 10 -10 16 0 14 7 11 14 -7z"/>
<path d="M11335 26330 c-3 -5 -1 -10 4 -10 6 0 11 5 11 10 0 6 -2 10 -4 10 -3
0 -8 -4 -11 -10z"/>
<path d="M13306 25798 c-30 -51 -61 -73 -116 -84 -8 -2 -45 -11 -82 -20 -59
-15 -66 -20 -55 -33 10 -14 10 -14 -5 -3 -12 9 -28 11 -50 6 -18 -4 -53 -7
-78 -6 -34 1 -40 -1 -25 -8 12 -5 14 -9 6 -9 -8 -1 -22 5 -30 13 -9 8 -34 17
-56 20 -22 3 -53 8 -69 12 -20 5 -27 3 -22 -4 3 -6 1 -14 -5 -18 -8 -4 -7 -9
2 -16 11 -7 9 -8 -4 -4 -10 3 -24 6 -30 7 -7 0 -1 5 12 10 16 6 21 13 15 19
-12 12 -108 33 -147 33 -17 0 -24 3 -17 7 9 6 9 10 -2 16 -8 5 -22 20 -31 34
l-17 24 0 -27 c0 -15 5 -27 11 -27 5 0 7 -5 3 -12 -4 -6 1 -17 10 -24 10 -7
17 -15 17 -18 -3 -20 0 -26 9 -21 5 3 7 0 4 -8 -3 -8 1 -19 8 -24 11 -9 233
-73 252 -73 4 0 6 8 6 18 1 16 1 16 11 -1 8 -14 14 -15 24 -7 10 8 16 7 23 -6
8 -14 19 -16 72 -11 35 4 68 12 75 17 7 6 19 8 28 4 8 -3 30 2 49 12 18 10 64
29 102 43 89 34 129 83 124 155 l-3 48 -19 -34z m-18 -93 c-3 -3 -9 2 -12 12
-6 14 -5 15 5 6 7 -7 10 -15 7 -18z m-95 -12 c-7 -2 -19 -2 -25 0 -7 3 -2 5
12 5 14 0 19 -2 13 -5z m47 -3 c-8 -5 -19 -10 -25 -10 -5 0 -3 5 5 10 8 5 20
10 25 10 6 0 3 -5 -5 -10z m-640 -36 c0 -8 -5 -12 -10 -9 -6 4 -8 11 -5 16 9
14 15 11 15 -7z m30 1 c-7 -9 -15 -13 -19 -10 -3 3 1 10 9 15 21 14 24 12 10
-5z m480 12 c0 -2 -10 -12 -22 -23 l-23 -19 19 23 c18 21 26 27 26 19z m60 -1
c0 -2 -7 -7 -16 -10 -8 -3 -12 -2 -9 4 6 10 25 14 25 6z m-503 -22 c-3 -3 -12
-4 -19 -1 -8 3 -5 6 6 6 11 1 17 -2 13 -5z m112 3 c-2 -1 -13 -9 -24 -17 -19
-14 -19 -14 -6 3 7 9 18 17 24 17 6 0 8 -1 6 -3z m17 -16 c-4 -5 -1 -11 6 -13
6 -2 8 -9 4 -16 -5 -9 -11 -9 -26 0 -17 11 -17 13 -2 25 20 15 25 16 18 4z
m324 2 c-8 -3 -27 -17 -41 -30 -18 -16 -29 -21 -34 -14 -3 7 -3 10 2 9 5 -2
19 7 33 20 13 12 31 22 39 21 14 0 14 -1 1 -6z"/>
<path d="M12789 25359 c-94 -8 -302 -46 -389 -73 -36 -11 -62 -11 -137 -1 -51
6 -93 8 -93 4 0 -4 30 -15 66 -25 48 -13 70 -24 82 -43 48 -74 211 -242 282
-291 177 -120 344 -149 511 -88 146 54 301 201 424 402 6 9 44 26 85 37 41 12
80 26 85 31 7 7 3 8 -10 5 -11 -3 -75 -13 -142 -22 l-122 -17 -98 26 c-190 49
-379 69 -544 55z"/>
<path d="M26178 25459 c20 -20 36 -27 48 -23 14 4 16 3 5 -4 -10 -8 -5 -15 25
-36 21 -14 50 -26 64 -27 19 0 21 -2 8 -7 -14 -6 -4 -14 40 -34 75 -35 118
-46 107 -27 -5 8 1 6 13 -5 14 -12 28 -16 39 -11 10 4 31 9 47 12 46 8 78 22
71 33 -3 5 0 7 8 5 7 -3 27 1 43 10 16 8 25 15 19 15 -5 1 4 7 20 14 35 15
128 96 121 104 -3 3 -11 0 -18 -5 -7 -6 -61 -27 -120 -47 -86 -29 -124 -37
-196 -39 -50 -1 -88 0 -86 2 2 3 -27 12 -64 22 -37 9 -103 31 -146 48 l-79 30
31 -30z m572 -63 c0 -2 -7 -7 -16 -10 -8 -3 -12 -2 -9 4 6 10 25 14 25 6z
m-227 -63 c-7 -2 -21 -2 -30 0 -10 3 -4 5 12 5 17 0 24 -2 18 -5z m50 -20 c-7
-2 -19 -2 -25 0 -7 3 -2 5 12 5 14 0 19 -2 13 -5z"/>
<path d="M37897 19334 c-3 -5 1 -15 9 -22 16 -14 18 -5 5 17 -5 7 -11 9 -14 5z"/>
<path d="M37850 19300 c0 -5 7 -7 15 -4 8 4 15 8 15 10 0 2 -7 4 -15 4 -8 0
-15 -4 -15 -10z"/>
<path d="M37885 19290 c-3 -5 -1 -10 4 -10 6 0 11 5 11 10 0 6 -2 10 -4 10 -3
0 -8 -4 -11 -10z"/>
<path d="M37813 19275 c-10 -7 -14 -17 -10 -22 5 -4 13 0 18 9 5 10 16 15 24
12 8 -4 15 -4 15 -1 0 13 -30 14 -47 2z"/>
<path d="M39738 18783 c6 -2 12 -10 12 -17 0 -8 10 -11 30 -8 16 2 28 8 25 12
-3 5 -14 6 -24 3 -10 -3 -22 0 -25 6 -4 6 -13 11 -19 10 -9 0 -9 -2 1 -6z"/>
<path d="M39710 18760 c0 -5 5 -10 10 -10 6 0 10 5 10 10 0 6 -4 10 -10 10 -5
0 -10 -4 -10 -10z"/>
<path d="M39995 18740 c-3 -6 1 -7 9 -4 18 7 21 14 7 14 -6 0 -13 -4 -16 -10z"/>
<path d="M40152 18741 c-11 -6 -10 -10 4 -15 9 -3 19 -4 22 -1 3 3 0 5 -7 5
-7 0 -9 5 -6 10 7 12 4 12 -13 1z"/>
<path d="M39704 18729 c-3 -5 11 -9 30 -9 20 0 36 3 36 8 0 10 -59 11 -66 1z"/>
<path d="M40247 18619 c7 -7 15 -10 18 -7 3 3 -2 9 -12 12 -14 6 -15 5 -6 -5z"/>
<path d="M41702 18244 c-7 -8 -8 -14 -3 -14 10 0 25 19 20 25 -2 1 -10 -3 -17
-11z"/>
<path d="M30260 18980 c0 -14 6 -20 23 -19 18 1 18 2 4 6 -11 3 -16 11 -13 19
3 8 1 14 -4 14 -6 0 -10 -9 -10 -20z"/>
<path d="M30311 18991 c-7 -5 -9 -11 -5 -14 5 -3 15 1 22 9 14 16 5 18 -17 5z"/>
<path d="M30377 18984 c10 -7 25 -13 33 -13 10 0 11 2 2 6 -6 2 -10 8 -8 11 2
4 -7 8 -20 8 -23 2 -24 1 -7 -12z"/>
<path d="M30340 18969 c0 -5 5 -7 10 -4 6 3 10 8 10 11 0 2 -4 4 -10 4 -5 0
-10 -5 -10 -11z"/>
<path d="M30461 18964 c0 -11 3 -14 6 -6 3 7 2 16 -1 19 -3 4 -6 -2 -5 -13z"/>
<path d="M30420 18960 l-25 -8 28 -1 c15 -1 27 4 27 9 0 6 -1 10 -2 9 -2 -1
-14 -5 -28 -9z"/>
<path d="M30368 18953 c7 -3 16 -2 19 1 4 3 -2 6 -13 5 -11 0 -14 -3 -6 -6z"/>
<path d="M30355 18860 c17 -4 22 -8 13 -9 -10 0 -18 -5 -18 -11 0 -6 10 -5 25
2 32 14 23 28 -18 27 l-32 -1 30 -8z"/>
<path d="M23475 18941 c-3 -6 -10 -9 -15 -6 -4 3 -10 -1 -13 -9 -4 -10 0 -12
14 -9 21 6 34 21 26 29 -3 3 -8 0 -12 -5z"/>
<path d="M26238 28943 c6 -2 18 -2 25 0 6 3 1 5 -13 5 -14 0 -19 -2 -12 -5z"/>
<path d="M24496 27002 c-7 -11 31 -48 41 -38 4 3 -2 16 -14 27 -11 12 -23 17
-27 11z"/>
<path d="M10930 26336 c0 -2 7 -7 16 -10 8 -3 12 -2 9 4 -6 10 -25 14 -25 6z"/>
<path d="M46263 6053 c26 -2 67 -2 90 0 23 2 2 3 -48 3 -49 0 -68 -1 -42 -3z"/>
<path d="M5773 5612 c-144 -141 -333 -326 -420 -411 -87 -85 -259 -254 -383
-375 -392 -383 -586 -573 -905 -881 -170 -165 -371 -360 -445 -432 l-135 -133
190 0 c105 0 3626 -27 7825 -60 4199 -33 9937 -78 12750 -100 2813 -22 5133
-40 5155 -41 22 0 594 -5 1270 -10 677 -5 2090 -16 3140 -24 1051 -8 2225 -17
2610 -20 385 -3 916 -7 1180 -10 264 -3 890 -7 1390 -10 501 -3 1185 -10 1520
-15 336 -6 966 -10 1400 -11 435 0 806 -2 825 -4 19 -2 467 -6 995 -10 528 -3
1133 -8 1345 -10 2414 -22 4180 -35 4379 -33 l244 3 -119 109 c-65 60 -151
139 -190 175 -39 36 -95 88 -125 115 -30 28 -85 79 -124 115 -38 36 -110 102
-160 147 -106 95 -544 495 -1462 1336 l-664 608 -147 0 c-81 0 -1247 7 -2592
15 -1345 8 -8153 49 -15130 90 -6977 41 -14939 89 -17695 105 -2755 16 -5066
30 -5135 30 l-125 -1 -262 -257z"/>
</g>
</svg>
