<?xml version="1.0" standalone="no"?>
<!DOCTYPE svg PUBLIC "-//W3C//DTD SVG 20010904//EN"
 "http://www.w3.org/TR/2001/REC-SVG-20010904/DTD/svg10.dtd">
<svg version="1.0" xmlns="http://www.w3.org/2000/svg"
 width="2000.000000pt" height="2000.000000pt" viewBox="0 0 2000.000000 2000.000000"
 preserveAspectRatio="xMidYMid meet">

<g transform="translate(0.000000,2000.000000) scale(0.100000,-0.100000)"
fill="#000000" stroke="none">
<path d="M1940 16610 l0 -1940 1375 0 1375 0 0 1940 0 1940 -1375 0 -1375 0 0
-1940z m2540 0 l0 -1730 -1165 0 -1165 0 0 1730 0 1730 1165 0 1165 0 0 -1730z"/>
<path d="M3150 17920 l0 -160 165 0 165 0 0 160 0 160 -165 0 -165 0 0 -160z"/>
<path d="M2780 17455 l0 -65 735 0 735 0 0 65 0 65 -735 0 -735 0 0 -65z"/>
<path d="M2370 17175 l0 -65 940 0 940 0 0 65 0 65 -940 0 -940 0 0 -65z"/>
<path d="M2370 16895 l0 -65 940 0 940 0 0 65 0 65 -940 0 -940 0 0 -65z"/>
<path d="M2370 16615 l0 -65 940 0 940 0 0 65 0 65 -940 0 -940 0 0 -65z"/>
<path d="M2372 16333 l3 -68 938 -3 937 -2 0 70 0 70 -940 0 -941 0 3 -67z"/>
<path d="M2374 16106 c-3 -7 -4 -38 -2 -67 l3 -54 938 -3 937 -2 0 70 0 70
-935 0 c-783 0 -936 -2 -941 -14z"/>
<path d="M2370 15765 l0 -65 940 0 940 0 0 65 0 65 -940 0 -940 0 0 -65z"/>
<path d="M2370 15485 l0 -65 470 0 470 0 0 65 0 65 -470 0 -470 0 0 -65z"/>
<path d="M5240 16610 l0 -1940 1375 0 1375 0 0 1940 0 1940 -1375 0 -1375 0 0
-1940z m2540 0 l0 -1730 -1165 0 -1165 0 0 1730 0 1730 1165 0 1165 0 0 -1730z"/>
<path d="M6460 17920 l0 -160 160 0 160 0 0 160 0 160 -160 0 -160 0 0 -160z"/>
<path d="M6080 17455 l0 -65 740 0 740 0 0 65 0 65 -740 0 -740 0 0 -65z"/>
<path d="M5680 17175 l0 -65 940 0 940 0 0 65 0 65 -940 0 -940 0 0 -65z"/>
<path d="M5680 16895 l0 -65 940 0 940 0 0 65 0 65 -940 0 -940 0 0 -65z"/>
<path d="M5680 16615 l0 -65 940 0 940 0 0 65 0 65 -940 0 -940 0 0 -65z"/>
<path d="M5680 16330 l0 -70 940 0 940 0 0 70 0 70 -940 0 -940 0 0 -70z"/>
<path d="M5680 16050 l0 -70 940 0 940 0 0 70 0 70 -940 0 -940 0 0 -70z"/>
<path d="M5680 15765 l0 -65 940 0 940 0 0 65 0 65 -940 0 -940 0 0 -65z"/>
<path d="M5680 15485 l0 -65 470 0 470 0 0 65 0 65 -470 0 -470 0 0 -65z"/>
<path d="M10342 17200 c-85 -12 -223 -47 -302 -77 -100 -37 -185 -89 -257
-156 -83 -77 -134 -156 -167 -255 -63 -188 -58 -379 16 -619 l31 -103 34 0
c19 0 56 -10 83 -21 49 -21 50 -21 82 -2 18 11 240 152 493 313 308 196 463
289 472 284 10 -7 420 -499 494 -593 l19 -24 41 18 c23 11 59 21 82 24 38 6
42 9 51 46 17 72 12 411 -7 492 -58 252 -178 371 -390 389 -71 6 -73 7 -107
51 -77 97 -213 183 -345 218 -73 19 -238 27 -323 15z"/>
<path d="M10238 16014 c-51 -27 -30 -66 21 -39 40 20 79 19 124 -5 47 -26 59
-25 55 1 -7 50 -137 78 -200 43z"/>
<path d="M10768 16009 c-25 -12 -38 -27 -38 -39 0 -25 11 -25 57 0 45 24 87
25 127 5 30 -16 46 -12 46 10 0 43 -127 59 -192 24z"/>
<path d="M10595 15941 c-5 -10 -62 -279 -70 -336 -3 -16 -9 -46 -15 -65 -19
-67 -19 -67 76 -69 92 -2 106 2 97 24 -4 11 -23 15 -75 15 l-69 0 3 43 c2 23
6 44 9 47 9 8 51 229 44 239 -3 5 -1 11 4 13 13 4 24 98 12 98 -5 0 -12 -4
-16 -9z"/>
<path d="M10297 15899 c-21 -13 -47 -61 -47 -89 0 -38 31 -90 57 -96 82 -21
127 120 56 176 -29 22 -40 24 -66 9z"/>
<path d="M10814 15895 c-68 -47 -44 -185 31 -185 74 0 101 130 38 180 -31 24
-42 25 -69 5z"/>
<path d="M9665 15880 c5 -9 4 -11 -3 -6 -24 14 -54 -15 -67 -64 -1 -3 -5 -13
-10 -23 -12 -28 11 -89 45 -122 22 -21 41 -29 72 -31 41 -2 68 9 68 27 0 5
-20 6 -44 3 -41 -6 -48 -4 -75 24 -17 17 -31 41 -32 54 -2 45 3 73 17 89 8 9
12 18 9 21 -3 3 15 4 41 3 31 -1 49 -7 56 -18 9 -17 38 -24 38 -9 0 5 -9 19
-19 31 -22 26 -111 45 -96 21z"/>
<path d="M11428 15874 c-28 -15 -42 -40 -28 -49 5 -3 23 4 39 16 31 23 60 21
95 -6 13 -10 19 -28 19 -66 1 -46 -3 -55 -31 -80 -33 -30 -79 -38 -99 -18 -8
8 -13 7 -18 -2 -11 -16 22 -39 55 -39 39 0 92 33 112 71 58 108 -41 227 -144
173z"/>
<path d="M10366 15235 c9 -14 21 -25 26 -25 5 0 7 -4 4 -9 -6 -9 55 -61 77
-65 7 -2 25 -8 40 -14 35 -15 124 -16 132 -2 4 6 10 8 15 5 22 -13 138 85 130
110 -1 4 4 11 11 16 7 4 -92 8 -219 9 l-233 1 17 -26z"/>
<path d="M11136 14331 c-2 -4 -88 -451 -192 -995 -164 -855 -190 -982 -196
-940 -4 27 -26 293 -49 591 l-41 542 34 48 c19 26 38 53 41 59 7 12 -133 220
-148 220 -11 0 -148 -195 -148 -211 0 -6 17 -34 37 -63 l38 -52 -42 -548 c-23
-301 -44 -566 -48 -590 -6 -35 -41 136 -197 949 l-189 992 -96 -7 c-187 -13
-865 -95 -921 -112 -30 -9 -319 -526 -514 -919 -252 -511 -427 -944 -545
-1349 -52 -179 -108 -456 -116 -572 -13 -180 32 -312 145 -424 128 -128 324
-201 615 -229 54 -6 100 -12 102 -13 2 -2 -10 -159 -26 -348 -17 -190 -30
-351 -30 -357 0 -10 62 -13 278 -13 277 0 277 0 317 -25 25 -15 55 -25 80 -25
22 0 54 -8 70 -18 17 -11 51 -21 77 -24 63 -7 101 -37 135 -105 22 -46 28 -74
31 -148 6 -125 -14 -194 -73 -252 -36 -37 -48 -43 -85 -43 -27 0 -53 -8 -72
-21 -16 -12 -51 -24 -76 -26 -26 -3 -69 -16 -96 -29 -47 -23 -61 -24 -225 -24
-175 0 -176 0 -146 -19 17 -10 54 -20 83 -23 29 -3 60 -12 70 -20 9 -9 39 -18
66 -21 61 -6 91 -29 130 -97 30 -53 31 -59 31 -175 0 -112 -2 -124 -29 -178
-33 -67 -72 -97 -129 -97 -22 0 -49 -8 -66 -21 -15 -11 -52 -24 -82 -28 -30
-4 -65 -14 -77 -22 -20 -14 143 -16 1621 -22 903 -4 2757 -7 4120 -7 l2477 0
0 370 0 370 -1474 2 -1474 3 29 70 c30 76 34 95 19 95 -7 0 -839 330 -896 356
-6 3 -20 -19 -31 -48 -12 -29 -30 -76 -41 -104 l-21 -51 401 -159 400 -159
-281 -5 -281 -5 20 -30 c11 -16 20 -36 20 -42 0 -10 -194 -13 -935 -13 -514 0
-935 4 -935 8 0 4 13 28 28 53 33 51 76 90 136 122 40 21 51 22 424 25 l382 3
0 23 c0 27 -97 1175 -106 1254 l-5 52 79 0 c44 0 125 5 181 10 470 49 661 290
597 755 -88 634 -462 1559 -1008 2495 -126 216 -142 240 -158 245 -78 23
-1007 129 -1014 116z m242 -2126 c62 -19 137 -77 196 -152 53 -66 140 -217
128 -221 -6 -2 -882 200 -917 212 -16 5 140 80 240 116 163 58 265 71 353 45z
m-1328 -79 c52 -8 128 -20 168 -27 l74 -13 -6 -30 c-4 -17 -20 -80 -37 -141
l-30 -111 -42 -3 c-23 -1 -222 -20 -441 -41 -220 -22 -401 -38 -403 -36 -6 6
79 150 122 206 63 82 148 158 207 185 47 22 66 25 173 25 66 0 163 -7 215 -14z
m5680 -3231 l0 -275 -487 2 -488 3 -3 273 -2 272 490 0 490 0 0 -275z"/>
<path d="M2536 13850 c3 -14 -1 -44 -10 -65 -9 -21 -15 -39 -14 -41 4 -3 1630
-264 1649 -264 11 0 19 17 27 62 6 34 10 63 9 65 -2 1 -368 61 -813 133 -445
71 -819 131 -831 133 -19 4 -21 0 -17 -23z"/>
<path d="M1922 13045 l-382 -675 20 -20 c32 -32 21 -78 -22 -92 -9 -3 -7 -21
7 -73 69 -255 267 -427 566 -492 120 -26 448 -26 569 0 274 59 470 215 545
434 38 111 39 126 13 138 -32 14 -37 68 -9 87 20 14 7 37 -357 679 -207 365
-381 669 -385 676 -8 12 -37 7 -37 -6 0 -4 171 -308 380 -676 208 -368 378
-670 377 -671 -1 -2 -33 6 -70 16 -297 83 -1165 83 -1489 1 -43 -11 -67 -14
-64 -7 2 6 173 308 379 671 358 631 386 686 348 685 -3 0 -178 -304 -389 -675z"/>
<path d="M4821 13442 c-7 -35 -11 -66 -9 -67 4 -4 1628 -265 1646 -265 6 0 12
12 12 28 0 15 9 44 19 65 10 20 15 37 10 37 -6 0 -1555 248 -1645 263 -19 3
-22 -4 -33 -61z"/>
<path d="M4440 12178 l0 -998 65 0 65 0 0 998 0 997 -65 0 -65 0 0 -997z"/>
<path d="M6142 12349 l-381 -671 20 -22 c26 -27 21 -68 -9 -81 -19 -8 -21 -15
-16 -45 41 -227 222 -420 464 -498 96 -31 146 -41 276 -52 229 -20 455 15 624
97 167 80 300 239 344 409 20 78 20 77 -6 89 -30 13 -35 54 -9 82 l20 21 -380
668 c-208 368 -385 670 -393 672 -8 2 -17 -1 -20 -6 -3 -5 165 -310 374 -678
209 -367 378 -669 377 -671 -2 -1 -27 4 -57 12 -164 43 -424 65 -755 65 -331
0 -591 -22 -755 -65 -30 -8 -55 -13 -57 -12 -1 2 168 304 377 671 209 368 377
673 374 678 -3 4 -11 8 -18 8 -7 0 -184 -302 -394 -671z"/>
<path d="M14017 11678 c-19 -51 -38 -101 -42 -110 -5 -13 0 -19 22 -24 44 -10
850 -331 878 -350 24 -15 25 -15 34 7 5 13 25 63 44 111 l35 87 -457 181
c-251 100 -461 184 -467 186 -6 3 -26 -35 -47 -88z"/>
<path d="M13930 11245 l-82 -204 -66 26 c-98 38 -100 37 -128 -31 -13 -33 -24
-65 -24 -71 0 -8 767 -321 1110 -453 10 -4 62 128 57 142 -3 7 -38 25 -78 40
-41 16 -76 30 -78 32 -1 1 31 90 73 196 42 106 76 199 76 205 0 6 -172 80
-382 163 -211 84 -386 154 -389 156 -4 2 -44 -88 -89 -201z"/>
<path d="M4320 10105 l0 -885 185 0 185 0 0 885 0 885 -185 0 -185 0 0 -885z"/>
<path d="M13426 10461 c-4 -5 -17 -39 -31 -75 l-24 -65 82 -31 c45 -18 83 -33
85 -35 2 -1 -34 -94 -78 -205 -45 -112 -77 -206 -73 -210 4 -4 166 -69 358
-145 193 -76 364 -144 380 -151 l31 -13 79 200 c43 110 82 202 86 205 5 3 43
-9 86 -25 42 -17 81 -27 84 -23 6 6 59 130 59 138 0 2 -1031 413 -1101 439
-10 4 -20 2 -23 -4z"/>
<path d="M15024 10355 c-9 -25 -20 -45 -24 -45 -4 0 -51 18 -105 40 -54 22
-102 37 -105 33 -4 -5 -19 -37 -33 -73 -14 -36 -42 -102 -61 -147 -19 -45 -32
-84 -28 -87 7 -4 120 -50 189 -77 l23 -8 -20 -47 c-11 -26 -19 -48 -18 -50 2
-1 37 -16 78 -32 l75 -30 22 50 c19 41 25 48 40 40 39 -20 1414 -564 1418
-561 6 7 115 295 115 305 0 5 -322 137 -715 294 -393 156 -715 285 -715 286 0
1 9 23 20 48 l20 47 -23 8 c-12 5 -46 18 -75 30 -29 12 -54 21 -57 21 -2 0
-11 -20 -21 -45z"/>
<path d="M7407 9982 c-14 -3 -17 -15 -17 -65 l0 -63 38 1 c20 0 49 9 65 19 26
18 28 18 55 0 15 -10 44 -19 65 -19 l37 -1 0 63 c0 44 -4 63 -12 63 -110 4
-218 4 -231 2z"/>
<path d="M7390 9323 l0 -63 130 0 130 0 0 63 0 64 -39 1 c-24 1 -44 -4 -51
-13 -7 -8 -25 -15 -40 -15 -15 0 -33 7 -40 15 -7 9 -27 14 -51 13 l-39 -1 0
-64z"/>
<path d="M17290 8890 l0 -370 135 0 135 0 0 370 0 370 -135 0 -135 0 0 -370z"/>
<path d="M7000 9188 l0 -63 38 0 c20 0 49 8 65 19 26 18 28 18 55 0 15 -10 44
-19 65 -19 l37 -1 0 63 0 63 -130 0 -130 0 0 -62z"/>
<path d="M7000 8593 l0 -63 135 0 135 0 0 43 c0 70 -8 84 -43 85 -18 0 -42 -6
-54 -14 -29 -18 -67 -18 -83 1 -7 9 -27 14 -51 13 l-39 -1 0 -64z"/>
<path d="M1670 8155 l0 -265 419 0 418 0 6 -67 c11 -113 8 -603 -3 -603 -5 0
-10 -25 -10 -55 0 -30 5 -55 10 -55 7 0 10 -127 9 -362 l-1 -363 -23 150 c-49
313 -118 614 -197 855 -37 114 -65 177 -52 119 4 -16 3 -20 -3 -11 -6 8 -25
-36 -56 -135 -93 -295 -165 -638 -209 -992 -14 -115 -25 -176 -30 -165 -4 11
-21 75 -38 144 -89 360 -256 836 -354 1005 l-17 30 5 -35 c82 -544 334 -2797
351 -3138 8 -171 -2 -106 -100 673 -7 59 -67 575 -90 780 -2 22 -9 81 -15 130
-23 200 -81 750 -95 905 -9 91 -18 183 -20 205 -3 22 -14 139 -25 259 -11 121
-22 222 -25 224 -3 3 -5 1 -5 -4 0 -5 -11 -62 -25 -126 -42 -200 -79 -488 -91
-723 -3 -60 -7 -130 -9 -155 -1 -25 -3 -110 -4 -190 l-1 -145 -69 180 c-85
226 -142 358 -240 555 -82 165 -171 323 -177 317 -2 -2 27 -141 66 -309 144
-633 450 -2101 535 -2566 15 -82 15 -116 1 -101 -21 20 -414 1899 -556 2654
-28 149 -54 288 -59 310 l-8 40 -7 -50 c-25 -178 -34 -348 -34 -635 1 -173 4
-353 8 -400 4 -47 11 -120 14 -162 4 -43 11 -115 16 -160 6 -46 13 -105 16
-133 9 -85 72 -445 99 -570 41 -191 139 -566 193 -737 l50 -158 -199 0 -199 0
0 -185 0 -185 124 0 123 0 10 -47 c34 -161 150 -735 258 -1283 69 -349 128
-645 130 -657 l5 -23 8510 0 8510 0 5 23 c2 12 61 308 130 657 108 548 224
1122 258 1283 l10 47 123 0 124 0 0 185 0 185 -199 0 -199 0 50 158 c54 171
152 546 193 737 27 125 90 485 99 570 3 28 10 87 16 133 5 45 12 117 16 160 3
42 10 115 14 162 4 47 7 227 8 400 0 287 -9 457 -34 635 l-7 50 -8 -40 c-5
-22 -31 -161 -59 -310 -147 -778 -535 -2634 -556 -2654 -14 -15 -14 19 1 101
87 475 391 1932 535 2566 39 168 68 307 66 309 -6 6 -95 -152 -177 -317 -98
-197 -155 -329 -240 -555 l-69 -180 -1 145 c-1 80 -3 165 -4 190 -2 25 -6 95
-9 155 -12 235 -49 523 -91 723 -14 64 -25 121 -25 126 0 5 -2 7 -5 4 -3 -2
-14 -103 -25 -224 -11 -120 -22 -237 -25 -259 -2 -22 -9 -89 -15 -150 -6 -60
-13 -132 -15 -160 -9 -87 -85 -798 -90 -840 -2 -22 -16 -141 -30 -265 -29
-255 -63 -545 -70 -605 -16 -128 -67 -531 -76 -595 -38 -294 -32 -119 11 322
85 864 254 2328 316 2738 l5 35 -17 -30 c-98 -169 -265 -645 -354 -1005 -17
-69 -34 -133 -38 -144 -5 -11 -16 50 -30 165 -45 360 -125 735 -219 1023 -24
76 -48 134 -53 130 -14 -16 -89 -256 -130 -416 -43 -171 -101 -464 -122 -623
-13 -97 -13 -89 -18 290 -3 215 -4 553 -2 753 l3 362 425 0 424 0 0 265 0 265
-8330 0 -8330 0 0 -265z m594 -2062 c1 -1549 -1 -1880 -14 -1888 -13 -8 -15
231 -15 1625 0 1465 2 1637 17 1622 9 -9 12 -364 12 -1359z m15502 -76 c0
-1613 -2 -1851 -18 -1824 -6 13 -12 379 -15 1105 -7 1232 3 2170 21 2152 8 -8
11 -391 12 -1433z"/>
</g>
</svg>
