<?xml version="1.0" standalone="no"?>
<!DOCTYPE svg PUBLIC "-//W3C//DTD SVG 20010904//EN"
 "http://www.w3.org/TR/2001/REC-SVG-20010904/DTD/svg10.dtd">
<svg version="1.0" xmlns="http://www.w3.org/2000/svg"
 width="2000.000000pt" height="2000.000000pt" viewBox="0 0 2000.000000 2000.000000"
 preserveAspectRatio="xMidYMid meet">

<g transform="translate(0.000000,2000.000000) scale(0.100000,-0.100000)"
fill="#000000" stroke="none">
<path d="M9590 17825 c-115 -33 -204 -107 -252 -211 -19 -40 -23 -66 -23 -145
0 -89 2 -99 37 -170 20 -40 57 -95 82 -121 63 -66 38 -71 -30 -6 -63 60 -109
142 -126 224 -14 70 -33 72 -25 2 10 -81 67 -186 136 -250 56 -52 58 -56 45
-79 -7 -13 -21 -46 -30 -74 -9 -27 -26 -58 -38 -68 -19 -16 -20 -18 -4 -30 13
-10 15 -25 11 -82 -3 -39 -2 -67 3 -62 4 4 26 42 49 85 41 76 42 77 81 77 32
0 39 3 39 20 0 11 -9 21 -22 25 -22 5 -22 5 6 39 l28 34 49 -13 c30 -8 118
-14 224 -15 200 -2 257 -15 359 -81 l58 -38 -23 -45 c-43 -88 -58 -166 -59
-311 0 -94 4 -142 13 -158 l13 -23 49 45 c113 106 235 74 281 -74 l15 -51 60
39 c145 94 230 270 195 406 -10 40 -9 49 10 81 13 22 23 60 27 100 13 168 -78
265 -250 265 -69 0 -158 23 -221 58 -71 38 -140 121 -237 282 -47 78 -105 167
-130 198 -91 113 -258 166 -400 127z"/>
<path d="M9882 16838 c2 -17 12 -24 40 -29 40 -6 88 -34 88 -50 0 -13 42 -7
47 7 5 15 -46 64 -84 80 -18 8 -46 14 -63 14 -27 0 -31 -3 -28 -22z"/>
<path d="M9447 16689 c-21 -12 -50 -66 -42 -79 11 -18 30 -10 48 21 23 41 41
32 45 -20 3 -33 7 -42 20 -39 12 2 18 15 20 45 5 64 -41 101 -91 72z"/>
<path d="M9570 16559 c-25 -22 -71 -56 -103 -77 -33 -21 -56 -43 -55 -52 4
-20 68 -61 92 -58 14 2 34 34 72 116 29 61 50 112 46 112 -4 -1 -27 -19 -52
-41z"/>
<path d="M9849 16585 c-27 -14 -53 -60 -44 -76 8 -12 35 -12 35 1 0 16 40 51
50 45 6 -4 10 -24 10 -46 0 -33 3 -40 18 -37 27 5 29 81 3 107 -24 24 -37 25
-72 6z"/>
<path d="M10303 16344 c-38 -25 -95 -104 -75 -104 5 0 24 18 42 41 42 53 92
75 131 59 15 -7 30 -18 33 -26 7 -18 26 -18 26 -1 0 23 -36 48 -77 54 -30 3
-47 -1 -80 -23z"/>
<path d="M6438 16214 c-49 -26 -74 -106 -48 -154 7 -13 6 -21 -5 -30 -31 -26
-12 -80 28 -80 19 0 20 -6 13 -132 -4 -73 -12 -137 -17 -142 -5 -6 -9 -21 -9
-34 0 -21 -2 -23 -15 -12 -27 22 -26 5 1 -44 14 -25 23 -53 20 -61 -9 -24 -61
-18 -96 11 -17 15 -33 24 -37 21 -3 -3 5 -26 17 -51 19 -40 20 -49 8 -72 -19
-39 -34 -40 -68 -4 -35 38 -53 32 -24 -7 28 -37 47 -47 76 -40 26 7 48 43 48
80 0 19 5 22 45 22 l45 1 0 -38 c0 -31 -5 -40 -28 -52 -38 -20 -91 -75 -98
-102 -4 -16 -23 -28 -67 -44 -95 -35 -214 -97 -299 -157 -88 -61 -178 -104
-257 -123 -95 -22 -291 6 -283 40 5 24 -20 80 -45 100 -30 23 -73 26 -112 6
-55 -29 -68 -114 -26 -164 l25 -30 -227 -466 c-201 -411 -230 -466 -250 -466
-21 0 -23 -5 -23 -45 0 -44 1 -45 33 -45 30 0 34 -5 64 -68 61 -128 179 -231
311 -272 76 -24 202 -26 277 -6 132 35 260 141 328 274 34 65 41 72 68 72 28
0 29 2 29 44 0 40 -2 45 -26 48 -23 3 -46 46 -244 451 -120 246 -215 447 -212
447 4 0 32 -10 62 -21 87 -34 190 -48 273 -38 103 12 153 29 274 97 106 60
257 134 299 146 17 5 26 0 42 -27 68 -115 236 -140 331 -49 21 20 43 46 48 56
10 18 15 19 52 7 23 -6 41 -17 41 -24 0 -7 -20 -82 -45 -167 -111 -384 -222
-811 -250 -964 l-17 -88 34 -53 c68 -109 168 -225 363 -421 340 -341 566 -486
760 -488 79 -1 82 0 187 56 178 95 425 269 668 471 63 53 115 95 116 94 1 -1
-83 -1365 -187 -3032 -104 -1666 -189 -3049 -189 -3073 0 -41 1 -42 23 -31 34
19 210 22 330 6 59 -8 110 -17 113 -20 3 -2 9 -211 14 -463 24 -1201 52 -2058
80 -2469 6 -77 10 -156 10 -176 l0 -36 86 -6 c48 -3 89 -8 91 -11 3 -3 8 -55
11 -115 5 -109 4 -112 -27 -175 -24 -49 -52 -83 -116 -141 -102 -93 -125 -135
-125 -228 l0 -67 -1284 0 -1283 0 -41 -88 c-109 -235 -137 -471 -82 -700 21
-87 78 -234 112 -289 l20 -33 3501 -2 3502 -3 -3899 -5 -3898 -5 -44 -80 c-96
-176 -128 -296 -127 -475 0 -166 24 -258 111 -430 l57 -115 4733 -3 4732 -2 0
100 0 100 -668 0 c-724 0 -725 0 -812 55 -83 52 -160 176 -160 255 l0 30 818
2 c718 3 817 5 817 18 0 13 -99 15 -819 18 l-819 2 6 49 c12 102 87 205 189
258 l53 28 698 3 697 3 0 94 0 95 -297 0 -298 0 3 105 3 105 -479 0 c-528 0
-539 1 -637 63 l-50 32 580 5 c542 5 580 6 583 23 3 16 -30 17 -582 17 -549 0
-585 -1 -588 -17 -3 -13 -13 -5 -41 32 -40 54 -67 122 -67 167 l0 28 640 0
c562 0 640 2 640 15 0 13 -78 15 -641 15 l-642 0 6 45 c13 91 82 190 168 242
102 61 124 63 641 63 l468 0 0 90 0 90 -2386 0 -2386 0 5 20 c9 33 -7 114 -65
330 -55 204 -55 205 -45 284 l11 79 102 -6 102 -5 6 102 c3 55 17 299 31 541
25 424 76 1213 133 2030 l27 390 285 -4 c157 -2 286 -4 287 -5 4 -3 245 -1948
318 -2556 36 -305 68 -566 71 -579 5 -23 8 -23 67 -17 215 21 203 21 211 -8 5
-19 -11 -94 -51 -239 -33 -125 -59 -240 -61 -279 l-4 -68 376 0 376 0 0 70 c0
95 -19 129 -124 225 -113 102 -146 164 -146 276 0 89 -9 82 123 94 37 4 67 10
67 15 0 8 -114 2643 -126 2901 l-6 146 48 28 c27 15 83 52 125 81 55 39 109
65 195 95 174 61 374 148 587 256 240 122 405 230 485 319 l60 67 51 -6 c28
-3 51 -4 51 -1 0 2 -13 34 -30 71 -16 36 -30 71 -30 78 0 7 -12 34 -26 61 -27
50 -475 1060 -679 1529 -691 1590 -1002 2555 -1040 3230 l-6 110 103 -200
c252 -485 478 -761 698 -852 182 -75 542 50 834 290 100 83 226 198 226 208 0
9 -34 91 -250 604 -67 160 -130 313 -140 340 -10 28 -55 138 -100 245 -45 107
-84 201 -87 208 -3 6 -9 12 -13 12 -6 0 -244 -288 -295 -358 -9 -10 -49 68
-174 335 -90 191 -244 511 -342 709 -188 383 -214 424 -286 443 -83 23 -957
210 -961 206 -2 -2 7 -770 22 -1707 14 -937 27 -1770 28 -1853 l2 -150 -50
-14 c-50 -15 -368 -20 -382 -7 -3 4 43 56 103 116 l109 109 -116 1592 -117
1592 33 71 33 71 -51 66 c-45 60 -55 67 -83 65 -27 -1 -40 -11 -73 -56 -66
-87 -65 -83 -25 -151 l36 -62 -85 -1531 c-47 -842 -88 -1558 -91 -1592 l-5
-61 129 -109 c110 -93 126 -109 105 -112 -34 -5 -525 27 -537 35 -7 4 -7 535
-1 1607 5 881 9 1705 9 1831 l0 230 -235 12 c-129 6 -246 9 -260 6 -85 -19
-219 -117 -445 -327 -266 -247 -490 -436 -517 -436 -5 0 -53 91 -109 201
l-100 201 22 24 c13 14 23 41 26 68 5 42 3 48 -30 81 -68 68 -155 35 -166 -61
l-6 -49 -55 -12 c-80 -16 -193 -15 -263 3 -76 19 -141 52 -237 118 -41 29 -95
64 -120 78 -25 14 -54 35 -64 47 -11 12 -22 18 -25 13 -8 -12 -138 37 -145 54
-3 8 0 13 6 11 23 -5 16 19 -11 34 -15 9 -41 33 -57 54 -26 34 -29 46 -29 111
l0 72 -30 -5 c-72 -12 -173 46 -149 85 8 13 32 19 90 24 109 10 144 17 144 30
0 7 -18 9 -50 6 l-50 -5 0 121 c0 116 1 122 23 131 26 12 35 56 14 74 -12 9
-13 19 -4 46 30 100 -67 187 -155 139z m138 -716 c0 -24 3 -56 7 -71 6 -22 5
-28 -5 -25 -15 5 -24 138 -10 138 5 0 9 -19 8 -42z m1108 -1057 c-3 -3 -39 29
-80 71 l-74 77 78 158 77 158 3 -229 c1 -126 0 -232 -4 -235z m-2414 4 l1
-455 -226 0 c-124 0 -225 3 -225 8 0 13 435 901 442 902 4 0 7 -205 8 -455z
m260 5 c116 -239 214 -441 217 -447 4 -10 -44 -13 -221 -13 l-226 0 0 457 c0
263 4 453 9 448 5 -6 104 -206 221 -445z m2110 447 c0 -2 -29 -66 -66 -141
l-65 -137 -102 97 c-56 54 -103 101 -105 104 -1 4 23 7 55 7 64 1 158 23 225
52 43 20 58 24 58 18z m290 -402 c0 -8 -130 -58 -161 -62 l-39 -6 0 239 1 239
99 -204 c55 -112 100 -205 100 -206z"/>
<path d="M13935 16118 c-9 -27 -85 -297 -85 -302 0 -3 7 -6 15 -6 9 0 21 24
34 68 11 37 29 99 40 138 12 39 21 81 21 93 0 23 -18 29 -25 9z"/>
<path d="M13580 16099 c0 -33 96 -299 107 -299 7 0 13 8 12 18 -1 33 -94 286
-106 290 -7 2 -13 -2 -13 -9z"/>
<path d="M14057 15842 c-83 -84 -102 -112 -74 -112 16 0 187 171 187 188 0 27
-30 7 -113 -76z"/>
<path d="M9955 15743 c-41 -17 -86 -27 -142 -31 l-83 -5 0 -60 0 -59 37 7 c74
14 211 99 251 156 16 23 12 23 -63 -8z"/>
<path d="M13155 15425 c-291 -107 -546 -197 -567 -200 -52 -9 -71 -29 -62 -69
13 -61 201 -737 209 -753 1 -2 53 -9 116 -16 96 -10 114 -15 117 -30 8 -41
-57 -79 -134 -78 -30 0 -54 -3 -54 -7 0 -4 7 -25 15 -47 21 -59 19 -134 -5
-172 -11 -18 -24 -33 -30 -33 -5 0 -10 -7 -10 -15 0 -24 16 -18 49 20 20 23
33 31 35 23 3 -7 12 -38 21 -68 48 -159 151 -446 166 -461 9 -9 63 -32 119
-50 l102 -34 564 190 c311 105 570 193 576 197 27 15 -478 1688 -509 1688 -7
0 -13 -6 -13 -12 0 -7 110 -380 245 -828 134 -448 243 -815 241 -817 -5 -5
-730 -257 -918 -319 l-177 -58 -58 23 c-32 12 -69 27 -83 33 l-25 10 25 13
c14 7 267 99 562 205 328 118 535 197 533 204 -3 6 -117 377 -254 825 -138
448 -254 818 -258 822 -5 4 -246 -80 -538 -186z"/>
<path d="M13050 3125 c0 -13 72 -15 590 -15 518 0 590 2 590 15 0 13 -72 15
-590 15 -518 0 -590 -2 -590 -15z"/>
<path d="M13290 2005 c0 -13 90 -15 766 -15 608 0 765 3 762 13 -4 9 -168 13
-766 15 -673 2 -762 0 -762 -13z"/>
<path d="M13307 1543 c-4 -3 -7 -12 -7 -20 0 -11 130 -13 758 -11 665 3 757 5
757 18 0 13 -91 15 -751 18 -413 1 -754 -1 -757 -5z"/>
</g>
</svg>
